<?xml version="1.0"?>
<!DOCTYPE svg PUBLIC "-//W3C//DTD SVG 1.1//EN" "http://www.w3.org/Graphics/SVG/1.1/DTD/svg11.dtd">
<svg xmlns="http://www.w3.org/2000/svg" xmlns:xlink="http://www.w3.org/1999/xlink" xmlns:PSR="http://www.cim.com" xmlns:cge="http://iec.ch/TC57/2005/SVG-schema#" width="1680" height="951" viewBox="0 0 1680 951">
<defs>
<symbol id="BREAKER_ON">
<polygon points="74,61 86,61 86,81 74,81" />
<line x1="80" y1="61" x2="80" y2="39" />
<line x1="80" y1="103" x2="80" y2="81" />
</symbol>
<style type="text/css"><![CDATA[
.kV3 {stroke:rgb(0,0,0)}
.kV6 {stroke:rgb(255,102,0)}
.kV10 {stroke:rgb(128,128,0)}
.kV13 {stroke:rgb(153,204,0)}
.kV15 {stroke:rgb(153,204,0)}
.kV20 {stroke:rgb(153,51,102)}
.kV35 {stroke:rgb(255,255,0)}
.kV110 {stroke:rgb(255,0,0)}
.kV220 {stroke:rgb(237,12,236)}
.kV330 {stroke:rgb(255,102,0)}
.kV500 {stroke:rgb(0,255,255)}
.kV800 {stroke:rgb(0,0,255)}]]></style>
<symbol id="TRANSTHREE_STAR_T">
<ellipse fill="none" cx="83" cy="60" rx="17" ry="17" />
<line x1="84" y1="43" x2="84" y2="32" />
<line x1="83" y1="57" x2="83" y2="49" />
<line x1="77" y1="63" x2="83" y2="57" />
<line x1="83" y1="57" x2="91" y2="63" />
<line x1="112" y1="41" x2="57" y2="96" />
<line x1="112" y1="50" x2="112" y2="41" />
<line x1="112" y1="41" x2="103" y2="42" />
</symbol>
<symbol id="TRANSTHREE_STAR">
<ellipse fill="none" cx="104" cy="74" rx="17" ry="17" />
<line x1="104" y1="74" x2="104" y2="66" />
<line x1="98" y1="80" x2="104" y2="74" />
<line x1="104" y1="74" x2="112" y2="80" />
<line x1="135" y1="74" x2="121" y2="74" />
</symbol>
<symbol id="TRANSTHREE_TRIAN">
<ellipse fill="none" cx="83" cy="85" rx="17" ry="17" />
<line x1="83" y1="116" x2="83" y2="102" />
<polygon fill="none" points="91,93 77,93 84,81" />
</symbol>
<symbol id="WAVEREC">
<rect stroke="RGB(255, 255, 255)" stroke-width="1" x="7" y="9" rx="0" ry="0" width="29" height="14" />
<line fill="none" stroke="RGB(0, 255, 0)" stroke-width="1" x1="11" y1="5" x2="40" y2="5" />
<ellipse fill="none" stroke="RGB(255, 0, 0)" stroke-width="1" cx="12" cy="17" rx="3" ry="3" />
<line fill="none" stroke="RGB(255, 255, 255)" stroke-width="1" x1="18" y1="17" x2="18" y2="22" />
<line fill="none" stroke="RGB(255, 255, 255)" stroke-width="1" x1="20" y1="15" x2="20" y2="22" />
<line fill="none" stroke="RGB(255, 255, 255)" stroke-width="1" x1="22" y1="13" x2="22" y2="22" />
<line fill="none" stroke="RGB(255, 255, 255)" stroke-width="1" x1="26" y1="17" x2="26" y2="22" />
<line fill="none" stroke="RGB(255, 255, 255)" stroke-width="1" x1="24" y1="15" x2="24" y2="22" />
<line fill="none" stroke="RGB(255, 255, 255)" stroke-width="1" x1="28" y1="19" x2="28" y2="22" />
<line fill="none" stroke="RGB(255, 255, 255)" stroke-width="1" x1="30" y1="14" x2="30" y2="23" />
<polygon stroke="RGB(255, 255, 255)" stroke-width="1" points="7,9  35,9  39,4  11,4" />
<polygon stroke="RGB(255, 255, 255)" stroke-width="1" points="35,9 35,23 39,18 39,4" />
</symbol>
<symbol id="RELAY">
<rect stroke="RGB(255, 255, 255)" stroke-width="1" x="6" y="5" rx="0" ry="0" width="19" height="20" />
<line fill="none" stroke="RGB(255, 255, 255)" stroke-width="1" x1="13" y1="9" x2="18" y2="9" />
<line fill="none" stroke="RGB(255, 255, 255)" stroke-width="1" x1="16" y1="7" x2="16" y2="24" />
<line fill="none" stroke="RGB(255, 255, 128)" stroke-width="1" x1="7" y1="7" x2="13" y2="7" />
<line fill="none" stroke="RGB(255, 255, 128)" stroke-width="1" x1="18" y1="7" x2="24" y2="7" />
<line fill="none" stroke="RGB(255, 255, 255)" stroke-width="1" x1="13" y1="20" x2="18" y2="20" />
<line fill="none" stroke="RGB(0, 0, 0)" stroke-width="1" x1="11" y1="10" x2="11" y2="16" />
<line fill="none" stroke="RGB(0, 0, 0)" stroke-width="1" x1="9" y1="10" x2="9" y2="16" />
<line fill="none" stroke="RGB(0, 0, 0)" stroke-width="1" x1="20" y1="10" x2="20" y2="16" />
<line fill="none" stroke="RGB(0, 0, 0)" stroke-width="1" x1="22" y1="10" x2="22" y2="16" />
<line fill="none" stroke="RGB(0, 0, 0)" stroke-width="1" x1="7" y1="19" x2="13" y2="19" />
<line fill="none" stroke="RGB(0, 0, 0)" stroke-width="1" x1="7" y1="21" x2="13" y2="21" />
<line fill="none" stroke="RGB(0, 0, 0)" stroke-width="1" x1="18" y1="19" x2="24" y2="19" />
<line fill="none" stroke="RGB(0, 0, 0)" stroke-width="1" x1="18" y1="21" x2="24" y2="21" />
</symbol>
</defs>
<g id="backGroundClass">
<rect fill="RGB(0, 64, 64)" x="0" y="0" width="1680" height="951" />
</g>
<line fill="none" stroke="RGB(255,0,0)" stroke-width="2" x1="40" y1="279" x2="1578" y2="279" />
<line fill="none" stroke="RGB(255,0,0)" stroke-width="2" x1="41" y1="377" x2="1579" y2="377" />
<line fill="none" stroke="RGB(255,0,0)" stroke-width="2" x1="41" y1="409" x2="1579" y2="409" />
<g id="BreakerClass">
<use fill="none" stroke="RGB(255,0,0)" stroke-width="2" transform="translate(16,241)" xlink:href="#BREAKER_ON" />
<use fill="none" stroke="RGB(255,0,0)" stroke-width="2" transform="translate(404,242)" xlink:href="#BREAKER_ON" />
<use fill="none" stroke="RGB(0,255,0)" stroke-width="2" transform="translate(11,703)" xlink:href="#BREAKER_ON" />
<use fill="none" stroke="RGB(0,255,0)" stroke-width="2" transform="translate(123,702)" xlink:href="#BREAKER_ON" />
<use fill="none" stroke="RGB(0,255,0)" stroke-width="2" transform="translate(264,541)" xlink:href="#BREAKER_ON" />
<use fill="none" stroke="RGB(0,255,0)" stroke-width="2" transform="translate(486,702)" xlink:href="#BREAKER_ON" />
<use fill="none" stroke="RGB(0,255,0)" stroke-width="2" transform="translate(622,671) rotate(90.00,80,71)" xlink:href="#BREAKER_ON" />
<use fill="none" stroke="RGB(0,255,0)" stroke-width="2" transform="translate(734,702)" xlink:href="#BREAKER_ON" />
<use fill="none" stroke="RGB(0,255,0)" stroke-width="2" transform="translate(979,702)" xlink:href="#BREAKER_ON" />
<use fill="none" stroke="RGB(0,255,0)" stroke-width="2" transform="translate(1200,702)" xlink:href="#BREAKER_ON" />
<use fill="none" stroke="RGB(255,0,0)" stroke-width="2" transform="translate(267,399)" xlink:href="#BREAKER_ON" />
<use fill="none" stroke="RGB(255,0,0)" stroke-width="2" transform="translate(1061,398)" xlink:href="#BREAKER_ON" />
<use fill="none" stroke="RGB(0,255,0)" stroke-width="2" transform="translate(1058,540)" xlink:href="#BREAKER_ON" />
<use fill="none" stroke="RGB(255,0,0)" stroke-width="2" transform="translate(624,369) rotate(90.00,80,71)" xlink:href="#BREAKER_ON" />
<use fill="none" stroke="RGB(0,255,0)" stroke-width="2" transform="translate(240,704)" xlink:href="#BREAKER_ON" />
<use fill="none" stroke="RGB(0,255,0)" stroke-width="2" transform="translate(352,703)" xlink:href="#BREAKER_ON" />
</g>
<line fill="none" stroke="RGB(255,0,0)" stroke-width="2" x1="96" y1="344" x2="96" y2="408" />
<line fill="none" stroke="RGB(255,0,0)" stroke-width="2" x1="96" y1="344" x2="128" y2="344" />
<line fill="none" stroke="RGB(255,0,0)" stroke-width="2" x1="128" y1="344" x2="128" y2="376" />
<line fill="none" stroke="RGB(255,0,0)" stroke-width="2" x1="96" y1="176" x2="96" y2="280" />
<text fill="RGB(255,255,255)" stroke="none" stroke-width="1" x="75" y="170" font-family="黑体" font-size="12">石七线</text>
<line fill="none" stroke="RGB(255,0,0)" stroke-width="2" x1="484" y1="345" x2="484" y2="409" />
<line fill="none" stroke="RGB(255,0,0)" stroke-width="2" x1="484" y1="345" x2="516" y2="345" />
<line fill="none" stroke="RGB(255,0,0)" stroke-width="2" x1="514" y1="345" x2="514" y2="377" />
<text fill="RGB(255,255,255)" stroke="none" stroke-width="1" x="493" y="317" font-family="黑体" font-size="12">606</text>
<line fill="none" stroke="RGB(0,255,0)" stroke-width="2" x1="40" y1="680" x2="1578" y2="680" />
<line fill="none" stroke="RGB(0,255,0)" stroke-width="2" x1="40" y1="708" x2="1578" y2="708" />
<line fill="none" stroke="RGB(0,255,0)" stroke-width="2" x1="39" y1="819" x2="1577" y2="819" />
<line fill="none" stroke="RGB(0,255,0)" stroke-width="2" transform="translate(-109,169)" x1="200" y1="511" x2="200" y2="575" />
<line fill="none" stroke="RGB(0,255,0)" stroke-width="2" transform="translate(-110,232)" x1="200" y1="511" x2="232" y2="511" />
<line fill="none" stroke="RGB(0,255,0)" stroke-width="2" transform="translate(-111,199)" x1="232" y1="511" x2="232" y2="543" />
<line fill="none" stroke="RGB(0,255,0)" stroke-width="2" x1="91" y1="805" x2="91" y2="884" />
<text fill="RGB(255,255,255)" stroke="none" stroke-width="1" x="61" y="898" font-family="黑体" font-size="12">七官线</text>
<line fill="none" stroke="RGB(0,255,0)" stroke-width="2" transform="translate(3,168)" x1="200" y1="511" x2="200" y2="575" />
<line fill="none" stroke="RGB(0,255,0)" stroke-width="2" transform="translate(2,231)" x1="200" y1="511" x2="232" y2="511" />
<line fill="none" stroke="RGB(0,255,0)" stroke-width="2" transform="translate(1,198)" x1="232" y1="511" x2="232" y2="543" />
<line fill="none" stroke="RGB(0,255,0)" stroke-width="2" x1="203" y1="804" x2="203" y2="883" />
<text fill="RGB(255,255,255)" stroke="none" stroke-width="1" x="173" y="898" font-family="黑体" font-size="12">七闫线</text>
<line fill="none" stroke="RGB(0,255,0)" stroke-width="2" transform="translate(160,153) rotate(90.00,216,511)" x1="200" y1="511" x2="232" y2="511" />
<line fill="none" stroke="RGB(0,255,0)" stroke-width="2" transform="translate(129,122) rotate(90.00,232,527)" x1="232" y1="511" x2="232" y2="543" />
<line fill="none" stroke="RGB(0,255,0)" stroke-width="2" transform="translate(366,168)" x1="200" y1="511" x2="200" y2="575" />
<line fill="none" stroke="RGB(0,255,0)" stroke-width="2" transform="translate(365,231)" x1="200" y1="511" x2="232" y2="511" />
<line fill="none" stroke="RGB(0,255,0)" stroke-width="2" transform="translate(364,198)" x1="232" y1="511" x2="232" y2="543" />
<text fill="RGB(255,255,255)" stroke="none" stroke-width="1" x="795" y="898" font-family="黑体" font-size="12">七临I线</text>
<line fill="none" stroke="RGB(0,255,0)" stroke-width="2" x1="566" y1="804" x2="566" y2="883" />
<line fill="none" stroke="RGB(0,255,0)" stroke-width="2" x1="671" y1="680" x2="671" y2="742" />
<line fill="none" stroke="RGB(0,255,0)" stroke-width="2" x1="735" y1="709" x2="735" y2="742" />
<line fill="none" stroke="RGB(0,255,0)" stroke-width="2" transform="translate(614,168)" x1="200" y1="511" x2="200" y2="575" />
<line fill="none" stroke="RGB(0,255,0)" stroke-width="2" transform="translate(613,231)" x1="200" y1="511" x2="232" y2="511" />
<line fill="none" stroke="RGB(0,255,0)" stroke-width="2" transform="translate(612,198)" x1="232" y1="511" x2="232" y2="543" />
<line fill="none" stroke="RGB(0,255,0)" stroke-width="2" x1="814" y1="804" x2="814" y2="883" />
<text fill="RGB(255,255,255)" stroke="none" stroke-width="1" x="538" y="898" font-family="黑体" font-size="12">七合线</text>
<line fill="none" stroke="RGB(0,255,0)" stroke-width="2" transform="translate(859,168)" x1="200" y1="511" x2="200" y2="575" />
<line fill="none" stroke="RGB(0,255,0)" stroke-width="2" transform="translate(858,231)" x1="200" y1="511" x2="232" y2="511" />
<line fill="none" stroke="RGB(0,255,0)" stroke-width="2" transform="translate(857,198)" x1="232" y1="511" x2="232" y2="543" />
<line fill="none" stroke="RGB(0,255,0)" stroke-width="2" x1="1059" y1="804" x2="1059" y2="883" />
<text fill="RGB(255,255,255)" stroke="none" stroke-width="1" x="1035" y="898" font-family="黑体" font-size="12">七临II线</text>
<line fill="none" stroke="RGB(0,255,0)" stroke-width="2" transform="translate(1080,168)" x1="200" y1="511" x2="200" y2="575" />
<line fill="none" stroke="RGB(0,255,0)" stroke-width="2" transform="translate(1079,231)" x1="200" y1="511" x2="232" y2="511" />
<line fill="none" stroke="RGB(0,255,0)" stroke-width="2" transform="translate(1078,198)" x1="232" y1="511" x2="232" y2="543" />
<line fill="none" stroke="RGB(0,255,0)" stroke-width="2" x1="1280" y1="804" x2="1280" y2="883" />
<text fill="RGB(255,255,255)" stroke="none" stroke-width="1" x="1259" y="898" font-family="黑体" font-size="12">凯七线</text>
<line fill="none" stroke="RGB(0, 0, 0)" stroke-width="2" />
<text fill="RGB(255,255,255)" stroke="none" stroke-width="1" x="10" y="270" font-family="黑体" font-size="12">220kV旁母</text>
<text fill="RGB(255,255,255)" stroke="none" stroke-width="1" x="7" y="369" font-family="黑体" font-size="12">220kV II母</text>
<text fill="RGB(255,255,255)" stroke="none" stroke-width="1" x="10" y="426" font-family="黑体" font-size="12">220kV I母</text>
<text fill="RGB(255,255,255)" stroke="none" stroke-width="1" x="10" y="672" font-family="黑体" font-size="12">110kV I母</text>
<text fill="RGB(255,255,255)" stroke="none" stroke-width="1" x="7" y="725" font-family="黑体" font-size="12">110kV II母</text>
<text fill="RGB(255,255,255)" stroke="none" stroke-width="1" x="7" y="812" font-family="黑体" font-size="12">110kV 旁母</text>
<g id="PowerTransformerClass">
<use fill="none" stroke="RGB(255,0,0)" stroke-width="2" transform="translate(263,470)" xlink:href="#TRANSTHREE_STAR_T" />
<use fill="none" stroke="RGB(255,255,0)" stroke-width="2" transform="translate(258,466)" xlink:href="#TRANSTHREE_STAR" />
<use fill="none" stroke="RGB(0,255,0)" stroke-width="2" transform="translate(261,464)" xlink:href="#TRANSTHREE_TRIAN" />
<use fill="none" stroke="RGB(255,0,0)" stroke-width="2" transform="translate(1057,468)" xlink:href="#TRANSTHREE_STAR_T" />
<use fill="none" stroke="RGB(255,255,0)" stroke-width="2" transform="translate(1052,464)" xlink:href="#TRANSTHREE_STAR" />
<use fill="none" stroke="RGB(0,255,0)" stroke-width="2" transform="translate(1055,462)" xlink:href="#TRANSTHREE_TRIAN" />
</g>
<g id="WaveRecClass">
<g>
<use fill="RGB(128, 255, 0)" stroke="RGB(0, 0, 0)" stroke-width="2" transform="translate(821,532)" xlink:href="#WAVEREC" />
<metadata>
<cge:PSR_Ref ObjectID="0#3" ObjectName="220kV1#故录ZH5" />
</metadata>
</g>
<g>
<use fill="RGB(128, 255, 0)" stroke="RGB(0, 0, 0)" stroke-width="2" transform="translate(821,561)" xlink:href="#WAVEREC" />
<metadata>
<cge:PSR_Ref ObjectID="0#14" ObjectName="220kV2#故障录波器ZH5" />
</metadata>
</g>
<g>
<use fill="RGB(128, 255, 0)" stroke="RGB(0, 0, 0)" stroke-width="2" transform="translate(821,591)" xlink:href="#WAVEREC" />
<metadata>
<cge:PSR_Ref ObjectID="0#19" ObjectName="110kV故障录波器ZH5" />
</metadata>
</g>
</g>
<g id="RelayClass">
<g>
<use fill="RGB(128, 255, 0)" stroke="RGB(0, 0, 0)" stroke-width="2" transform="translate(117,649)" xlink:href="#RELAY" />
<metadata>
<cge:PSR_Ref ObjectID="0#29" ObjectName="110kV母差保护RCS915GA" />
</metadata>
</g>
<g>
<use fill="RGB(128, 255, 0)" stroke="RGB(0, 0, 0)" stroke-width="2" transform="translate(89,408)" xlink:href="#RELAY" />
<metadata>
<cge:PSR_Ref ObjectID="0#15" ObjectName="220kV第一套母差保护RCS915GA" />
</metadata>
</g>
<g>
<use fill="RGB(128, 255, 0)" stroke="RGB(0, 0, 0)" stroke-width="2" transform="translate(89,436)" xlink:href="#RELAY" />
<metadata>
<cge:PSR_Ref ObjectID="0#7" ObjectName="220kV第二套母差保护SGB750" />
</metadata>
</g>
<g>
<use fill="RGB(128, 255, 0)" stroke="RGB(0, 0, 0)" stroke-width="2" transform="translate(566,836)" xlink:href="#RELAY" />
<metadata>
<cge:PSR_Ref ObjectID="0#20" ObjectName="110kV七合线508线路保护RCS941A" />
</metadata>
</g>
<g>
<use fill="RGB(128, 255, 0)" stroke="RGB(0, 0, 0)" stroke-width="2" transform="translate(205,836)" xlink:href="#RELAY" />
<metadata>
<cge:PSR_Ref ObjectID="0#22" ObjectName="110kV七闫线504线路保护RCS941A" />
</metadata>
</g>
<g>
<use fill="RGB(128, 255, 0)" stroke="RGB(0, 0, 0)" stroke-width="2" transform="translate(91,836)" xlink:href="#RELAY" />
<metadata>
<cge:PSR_Ref ObjectID="0#23" ObjectName="110kV七官线502线路保护RCS941A" />
</metadata>
</g>
<g>
<use fill="RGB(128, 255, 0)" stroke="RGB(0, 0, 0)" stroke-width="2" transform="translate(1281,834)" xlink:href="#RELAY" />
<metadata>
<cge:PSR_Ref ObjectID="0#21" ObjectName="110kV凯七线522线路保护RCS943AMV" />
</metadata>
</g>
<g>
<use fill="RGB(128, 255, 0)" stroke="RGB(0, 0, 0)" stroke-width="2" transform="translate(1058,836)" xlink:href="#RELAY" />
<metadata>
<cge:PSR_Ref ObjectID="0#25" ObjectName="110kV七临II线518线路保护RCS943AMV" />
</metadata>
</g>
<g>
<use fill="RGB(128, 255, 0)" stroke="RGB(0, 0, 0)" stroke-width="2" transform="translate(813,836)" xlink:href="#RELAY" />
<metadata>
<cge:PSR_Ref ObjectID="0#24" ObjectName="110kV七临I线512线路保护RCS943AMV" />
</metadata>
</g>
<g>
<use fill="RGB(128, 255, 0)" stroke="RGB(0, 0, 0)" stroke-width="2" transform="translate(94,183)" xlink:href="#RELAY" />
<metadata>
<cge:PSR_Ref ObjectID="0#11" ObjectName="220kV石七线602第一套线路保护RCS902B" />
</metadata>
</g>
<g>
<use fill="RGB(128, 255, 0)" stroke="RGB(0, 0, 0)" stroke-width="2" transform="translate(94,210)" xlink:href="#RELAY" />
<metadata>
<cge:PSR_Ref ObjectID="0#12" ObjectName="220kV石七线602第二套线路保护RCS931BM" />
</metadata>
</g>
<g>
<use fill="RGB(128, 255, 0)" stroke="RGB(0, 0, 0)" stroke-width="2" transform="translate(487,178)" xlink:href="#RELAY" />
<metadata>
<cge:PSR_Ref ObjectID="0#10" ObjectName="220kV澧七Ⅱ线606第二套线路保护PCS931A" />
</metadata>
</g>
<g>
<use fill="RGB(128, 255, 0)" stroke="RGB(0, 0, 0)" stroke-width="2" transform="translate(487,206)" xlink:href="#RELAY" />
<metadata>
<cge:PSR_Ref ObjectID="0#9" ObjectName="220kV澧七Ⅱ线606第一套线路保护WXH803A" />
</metadata>
</g>
<g>
<use fill="RGB(128, 255, 0)" stroke="RGB(0, 0, 0)" stroke-width="2" transform="translate(665,769)" xlink:href="#RELAY" />
<metadata>
<cge:PSR_Ref ObjectID="0#26" ObjectName="110kV母联500断路器保护RCS9616C" />
</metadata>
</g>
<g>
<use fill="RGB(128, 255, 0)" stroke="RGB(0, 0, 0)" stroke-width="2" transform="translate(665,465)" xlink:href="#RELAY" />
<metadata>
<cge:PSR_Ref ObjectID="0#8" ObjectName="220kV母联600断路器保护RCS923GPV" />
</metadata>
</g>
<g>
<use fill="RGB(128, 255, 0)" stroke="RGB(0, 0, 0)" stroke-width="2" transform="translate(433,521)" xlink:href="#RELAY" />
<metadata>
<cge:PSR_Ref ObjectID="0#5" ObjectName="#1主变第一套电量保护RCS978GE" />
</metadata>
</g>
<g>
<use fill="RGB(128, 255, 0)" stroke="RGB(0, 0, 0)" stroke-width="2" transform="translate(433,545)" xlink:href="#RELAY" />
<metadata>
<cge:PSR_Ref ObjectID="0#6" ObjectName="#1主变第二套电量保护RCS978GE" />
</metadata>
</g>
<g>
<use fill="RGB(128, 255, 0)" stroke="RGB(0, 0, 0)" stroke-width="2" transform="translate(433,569)" xlink:href="#RELAY" />
<metadata>
<cge:PSR_Ref ObjectID="0#4" ObjectName="#1主变非电量保护RCS974" />
</metadata>
</g>
<g>
<use fill="RGB(128, 255, 0)" stroke="RGB(0, 0, 0)" stroke-width="2" transform="translate(434,837)" xlink:href="#RELAY" />
<metadata>
<cge:PSR_Ref ObjectID="0#28" ObjectName="110kV七芭Ⅱ线514线路保护CSC163A-G" />
</metadata>
</g>
<g>
<use fill="RGB(128, 255, 0)" stroke="RGB(0, 0, 0)" stroke-width="2" transform="translate(320,837)" xlink:href="#RELAY" />
<metadata>
<cge:PSR_Ref ObjectID="0#27" ObjectName="110kV七芭Ⅰ线516线路保护CSC163A-G" />
</metadata>
</g>
<g>
<use fill="RGB(128, 255, 0)" stroke="RGB(0, 0, 0)" stroke-width="2" transform="translate(825,414)" xlink:href="#RELAY" />
<metadata>
<cge:PSR_Ref ObjectID="0#13" ObjectName="220kV稳控保护PCS-922" />
</metadata>
</g>
<g>
<use fill="RGB(128, 255, 0)" stroke="RGB(0, 0, 0)" stroke-width="2" transform="translate(1191,500)" xlink:href="#RELAY" />
<metadata>
<cge:PSR_Ref ObjectID="0#16" ObjectName="#2主变第一套保护CSC-326T2" />
</metadata>
</g>
<g>
<use fill="RGB(128, 255, 0)" stroke="RGB(0, 0, 0)" stroke-width="2" transform="translate(1191,524)" xlink:href="#RELAY" />
<metadata>
<cge:PSR_Ref ObjectID="0#17" ObjectName="#2主变第二套保护NSR-378T2" />
</metadata>
</g>
<g>
<use fill="RGB(128, 255, 0)" stroke="RGB(0, 0, 0)" stroke-width="2" transform="translate(1191,548)" xlink:href="#RELAY" />
<metadata>
<cge:PSR_Ref ObjectID="0#18" ObjectName="#2主变非电量保护CSC-336C2" />
</metadata>
</g>
</g>
<text fill="RGB(255,255,255)" stroke="none" stroke-width="1" x="397" y="546" font-family="黑体" font-size="12">#1主变</text>
<text fill="RGB(255,255,255)" stroke="none" stroke-width="1" x="464" y="541" font-family="黑体" font-size="12">#1主变第一套电量保护RCS978GE</text>
<text fill="RGB(255,255,255)" stroke="none" stroke-width="1" x="464" y="565" font-family="黑体" font-size="12">#1主变第二套电量保护RCS978GE</text>
<text fill="RGB(255,255,255)" stroke="none" stroke-width="1" x="145" y="669" font-family="黑体" font-size="12">110kV母差保护RCS915GA</text>
<text fill="RGB(255,255,255)" stroke="none" stroke-width="1" x="118" y="427" font-family="黑体" font-size="12">220kV第一套母差保护RCS915GA</text>
<text fill="RGB(255,255,255)" stroke="none" stroke-width="1" x="118" y="455" font-family="黑体" font-size="12">220kV第二套母差保护SGB750</text>
<text fill="RGB(255,255,255)" stroke="none" stroke-width="1" x="594" y="856" font-family="黑体" font-size="12">RCS941A</text>
<text fill="RGB(255,255,255)" stroke="none" stroke-width="1" x="233" y="856" font-family="黑体" font-size="12">RCS941A</text>
<text fill="RGB(255,255,255)" stroke="none" stroke-width="1" x="119" y="855" font-family="黑体" font-size="12">RCS941A</text>
<text fill="RGB(255,255,255)" stroke="none" stroke-width="1" x="1309" y="855" font-family="黑体" font-size="12">RCS943AMV</text>
<text fill="RGB(255,255,255)" stroke="none" stroke-width="1" x="1086" y="856" font-family="黑体" font-size="12">RCS943AMV</text>
<text fill="RGB(255,255,255)" stroke="none" stroke-width="1" x="841" y="856" font-family="黑体" font-size="12">RCS943AMV</text>
<text fill="RGB(255,255,255)" stroke="none" stroke-width="1" x="123" y="202" font-family="黑体" font-size="12">第一套线路保护RCS902B</text>
<image x="-4" y="-2" width="1690" height="140" xlink:href="国家电网图.jpg" />
<text fill="RGB(255,255,255)" stroke="none" stroke-width="1" x="345" y="62" font-family="宋体" font-size="48" font-weight="bold">智能型继电保护及故障信息处理系统</text>
<text fill="RGB(255,255,255)" stroke="none" stroke-width="1" x="362" y="121" font-family="宋体" font-size="24" font-style="italic" font-weight="bold">Intelligent Power Fault Analyzing  Processing System</text>
<text fill="RGB(255,255,255)" stroke="none" stroke-width="1" x="1124" y="126" font-family="宋体" font-size="36" font-weight="bold">220kV七重堰变</text>
<text fill="RGB(255,255,255)" stroke="none" stroke-width="1" x="87" y="105" font-family="宋体" font-size="24" font-weight="bold">湖南省电力公司</text>
<image x="1471" y="0" width="212" height="84" xlink:href="未标题-1.jpg" />
<text fill="RGB(255,255,255)" stroke="none" stroke-width="1" x="1378" y="123" font-family="宋体" font-size="28" font-weight="bold">国电南思</text>
<text fill="RGB(255,255,255)" stroke="none" stroke-width="1" x="105" y="316" font-family="黑体" font-size="12">602</text>
<text fill="RGB(255,255,255)" stroke="none" stroke-width="1" x="123" y="230" font-family="黑体" font-size="12">第二套线路保护RCS931BM</text>
<text fill="RGB(255,255,255)" stroke="none" stroke-width="1" x="101" y="779" font-family="黑体" font-size="12">502</text>
<text fill="RGB(255,255,255)" stroke="none" stroke-width="1" x="213" y="778" font-family="黑体" font-size="12">504</text>
<text fill="RGB(255,255,255)" stroke="none" stroke-width="1" x="576" y="778" font-family="黑体" font-size="12">508</text>
<text fill="RGB(255,255,255)" stroke="none" stroke-width="1" x="824" y="778" font-family="黑体" font-size="12">512</text>
<text fill="RGB(255,255,255)" stroke="none" stroke-width="1" x="1069" y="778" font-family="黑体" font-size="12">518</text>
<text fill="RGB(255,255,255)" stroke="none" stroke-width="1" x="1290" y="778" font-family="黑体" font-size="12">522</text>
<line fill="none" stroke="RGB(255,0,0)" stroke-width="2" x1="484" y1="175" x2="484" y2="279" />
<text fill="RGB(255,255,255)" stroke="none" stroke-width="1" x="455" y="168" font-family="黑体" font-size="12">澧七Ⅱ线</text>
<text fill="RGB(255,255,255)" stroke="none" stroke-width="1" x="515" y="225" font-family="黑体" font-size="12">第一套线路保护WXH803A</text>
<text fill="RGB(255,255,255)" stroke="none" stroke-width="1" x="515" y="197" font-family="黑体" font-size="12">第二套线路保护PCS931A</text>
<text fill="RGB(255,255,255)" stroke="none" stroke-width="1" x="692" y="765" font-family="黑体" font-size="12">500</text>
<text fill="RGB(255,255,255)" stroke="none" stroke-width="1" transform="translate(-9,-156)" x="363" y="770" font-family="黑体" font-size="12">510</text>
<text fill="RGB(255,255,255)" stroke="none" stroke-width="1" x="356" y="472" font-family="黑体" font-size="12">610</text>
<line fill="none" stroke="RGB(255,0,0)" stroke-width="2" transform="translate(132,-90) rotate(90.00,232,527)" x1="232" y1="511" x2="232" y2="543" />
<line fill="none" stroke="RGB(255,0,0)" stroke-width="2" x1="379" y1="410" x2="380" y2="437" />
<line fill="none" stroke="RGB(255,0,0)" stroke-width="2" x1="348" y1="376" x2="347" y2="437" />
<line fill="none" stroke="RGB(0,255,0)" stroke-width="2" x1="344" y1="640" x2="344" y2="706" />
<line fill="none" stroke="RGB(0,255,0)" stroke-width="2" transform="translate(954,154) rotate(90.00,216,511)" x1="200" y1="511" x2="232" y2="511" />
<line fill="none" stroke="RGB(0,255,0)" stroke-width="2" transform="translate(923,121) rotate(90.00,232,527)" x1="232" y1="511" x2="232" y2="543" />
<text fill="RGB(255,255,255)" stroke="none" stroke-width="1" x="1093" y="505" font-family="黑体" font-size="12">#2主变</text>
<text fill="RGB(255,255,255)" stroke="none" stroke-width="1" transform="translate(785,-154)" x="363" y="770" font-family="黑体" font-size="12">511</text>
<text fill="RGB(255,255,255)" stroke="none" stroke-width="1" x="1150" y="472" font-family="黑体" font-size="12">611</text>
<line fill="none" stroke="RGB(255,0,0)" stroke-width="2" transform="translate(926,-90) rotate(90.00,232,527)" x1="232" y1="511" x2="232" y2="543" />
<line fill="none" stroke="RGB(255,0,0)" stroke-width="2" x1="1172" y1="410" x2="1173" y2="437" />
<line fill="none" stroke="RGB(255,0,0)" stroke-width="2" x1="1141" y1="376" x2="1140" y2="437" />
<line fill="none" stroke="RGB(0,255,0)" stroke-width="2" x1="1138" y1="641" x2="1138" y2="707" />
<line fill="none" stroke="RGB(255,0,0)" stroke-width="2" x1="675" y1="377" x2="675" y2="439" />
<line fill="none" stroke="RGB(255,0,0)" stroke-width="2" x1="739" y1="406" x2="739" y2="439" />
<text fill="RGB(255,255,255)" stroke="none" stroke-width="1" x="693" y="462" font-family="黑体" font-size="12">600</text>
<text fill="RGB(255,255,255)" stroke="none" stroke-width="1" x="459" y="589" font-family="黑体" font-size="12">#1主变非电量保护RCS974</text>
<text fill="RGB(255,255,255)" stroke="none" stroke-width="1" x="697" y="790" font-family="黑体" font-size="12">RCS9616C</text>
<text fill="RGB(255,255,255)" stroke="none" stroke-width="1" x="689" y="486" font-family="黑体" font-size="12">RCS923GPV</text>
<text fill="RGB(255,255,255)" stroke="none" stroke-width="1" x="866" y="550" font-family="黑体" font-size="12">220kV1#故录ZH5</text>
<text fill="RGB(255,255,255)" stroke="none" stroke-width="1" x="866" y="579" font-family="黑体" font-size="12">220kV2#故障录波器ZH5</text>
<line fill="none" stroke="RGB(0,255,0)" stroke-width="2" transform="translate(120,170)" x1="200" y1="511" x2="200" y2="575" />
<line fill="none" stroke="RGB(0,255,0)" stroke-width="2" transform="translate(119,233)" x1="200" y1="511" x2="232" y2="511" />
<line fill="none" stroke="RGB(0,255,0)" stroke-width="2" transform="translate(118,200)" x1="232" y1="511" x2="232" y2="543" />
<line fill="none" stroke="RGB(0,255,0)" stroke-width="2" x1="320" y1="806" x2="320" y2="885" />
<text fill="RGB(255,255,255)" stroke="none" stroke-width="1" x="290" y="899" font-family="黑体" font-size="12">七芭Ⅰ线</text>
<line fill="none" stroke="RGB(0,255,0)" stroke-width="2" transform="translate(232,169)" x1="200" y1="511" x2="200" y2="575" />
<line fill="none" stroke="RGB(0,255,0)" stroke-width="2" transform="translate(231,232)" x1="200" y1="511" x2="232" y2="511" />
<line fill="none" stroke="RGB(0,255,0)" stroke-width="2" transform="translate(230,199)" x1="232" y1="511" x2="232" y2="543" />
<line fill="none" stroke="RGB(0,255,0)" stroke-width="2" x1="432" y1="805" x2="432" y2="884" />
<text fill="RGB(255,255,255)" stroke="none" stroke-width="1" x="402" y="899" font-family="黑体" font-size="12">七芭Ⅱ线</text>
<text fill="RGB(255,255,255)" stroke="none" stroke-width="1" x="462" y="857" font-family="黑体" font-size="12">CSC163A-G</text>
<text fill="RGB(255,255,255)" stroke="none" stroke-width="1" x="348" y="856" font-family="黑体" font-size="12">CSC163A-G</text>
<text fill="RGB(255,255,255)" stroke="none" stroke-width="1" x="330" y="780" font-family="黑体" font-size="12">516</text>
<text fill="RGB(255,255,255)" stroke="none" stroke-width="1" x="442" y="779" font-family="黑体" font-size="12">514</text>
<text fill="RGB(255,255,255)" stroke="none" stroke-width="1" x="853" y="434" font-family="黑体" font-size="12">220kV稳控保护PCS-922</text>
<text fill="RGB(255,255,255)" stroke="none" stroke-width="1" x="1221" y="520" font-family="黑体" font-size="12">#2主变第一套保护CSC-326T2</text>
<text fill="RGB(255,255,255)" stroke="none" stroke-width="1" x="1221" y="544" font-family="黑体" font-size="12">#2主变第二套保护NSR-378T2</text>
<text fill="RGB(255,255,255)" stroke="none" stroke-width="1" x="1221" y="568" font-family="黑体" font-size="12">#2主变非电量保护CSC-336C2</text>
<text fill="RGB(255,255,255)" stroke="none" stroke-width="1" x="866" y="609" font-family="黑体" font-size="12">110kV故障录波器ZH5</text>
</svg>
