<?xml version="1.0"?>
<!DOCTYPE svg PUBLIC "-//W3C//DTD SVG 1.1//EN" "http://www.w3.org/Graphics/SVG/1.1/DTD/svg11.dtd">
<svg xmlns="http://www.w3.org/2000/svg" xmlns:xlink="http://www.w3.org/1999/xlink" xmlns:PSR="http://www.cim.com" xmlns:cge="http://iec.ch/TC57/2005/SVG-schema#" width="1899" height="1350" viewBox="0 0 2110 1500">
<defs>
<symbol id="BREAKER_ON" preserveAspectRatio="xMidYMid meet">
<polygon stroke-width="1" points="74,61 86,61 86,81 74,81 " />
<line stroke-width="1" x1="80" y1="61" x2="80" y2="50" />
<line stroke-width="1" x1="80" y1="94" x2="80" y2="81" />
</symbol>
<symbol id="BREAKER_OFF" preserveAspectRatio="xMidYMid meet">
<polygon fill="none" stroke-width="1" points="74,61 86,61 86,81 74,81 " />
<line stroke-width="1" x1="80" y1="61" x2="80" y2="50" />
<line stroke-width="1" x1="80" y1="94" x2="80" y2="81" />
</symbol>
<symbol id="RELAY" preserveAspectRatio="xMidYMid meet">
<rect stroke="RGB(255, 255, 255)" stroke-width="1" x="5" y="6" rx="0" ry="0" width="24" height="25" />
<line fill="none" stroke="RGB(255, 255, 255)" stroke-width="1" x1="15" y1="11" x2="20" y2="11" />
<line fill="none" stroke="RGB(255, 255, 255)" stroke-width="1" x1="17" y1="9" x2="17" y2="26" />
<line fill="none" stroke="RGB(255, 255, 128)" stroke-width="1" x1="9" y1="9" x2="15" y2="9" />
<line fill="none" stroke="RGB(255, 255, 128)" stroke-width="1" x1="20" y1="9" x2="26" y2="9" />
<line fill="none" stroke="RGB(255, 255, 255)" stroke-width="1" x1="15" y1="22" x2="20" y2="22" />
<line fill="none" stroke="RGB(0, 0, 0)" stroke-width="1" x1="13" y1="12" x2="13" y2="18" />
<line fill="none" stroke="RGB(0, 0, 0)" stroke-width="1" x1="11" y1="12" x2="11" y2="18" />
<line fill="none" stroke="RGB(0, 0, 0)" stroke-width="1" x1="21" y1="12" x2="21" y2="18" />
<line fill="none" stroke="RGB(0, 0, 0)" stroke-width="1" x1="23" y1="12" x2="23" y2="18" />
<line fill="none" stroke="RGB(0, 0, 0)" stroke-width="1" x1="9" y1="21" x2="15" y2="21" />
<line fill="none" stroke="RGB(0, 0, 0)" stroke-width="1" x1="9" y1="23" x2="15" y2="23" />
<line fill="none" stroke="RGB(0, 0, 0)" stroke-width="1" x1="20" y1="21" x2="26" y2="21" />
<line fill="none" stroke="RGB(0, 0, 0)" stroke-width="1" x1="20" y1="23" x2="26" y2="23" />
</symbol>
<style type="text/css"><![CDATA[
.kV3 {stroke:rgb(0,0,0)}
.kV6 {stroke:rgb(255,102,0)}
.kV10 {stroke:rgb(128,128,0)}
.kV13 {stroke:rgb(153,204,0)}
.kV15 {stroke:rgb(153,204,0)}
.kV20 {stroke:rgb(153,51,102)}
.kV35 {stroke:rgb(255,255,0)}
.kV110 {stroke:rgb(0,255,0)}
.kV220 {stroke:rgb(255,0,0)}
.kV330 {stroke:rgb(255,102,0)}
.kV500 {stroke:rgb(0,255,255)}
.kV800 {stroke:rgb(0,0,255)}]]></style>
<symbol id="TRANSTHREE_TRIAN" preserveAspectRatio="xMidYMid meet">
<ellipse fill="none" stroke-width="1" cx="83" cy="85" rx="17" ry="17" />
<line stroke-width="1" x1="83" y1="117" x2="83" y2="102" />
<polygon fill="none" stroke-width="1" points="91,93 77,93 84,81 " />
</symbol>
<symbol id="TRANSTHREE_STAR" preserveAspectRatio="xMidYMid meet">
<ellipse fill="none" stroke-width="1" cx="104" cy="74" rx="17" ry="17" />
<line stroke-width="1" x1="104" y1="74" x2="104" y2="66" />
<line stroke-width="1" x1="98" y1="80" x2="104" y2="74" />
<line stroke-width="1" x1="104" y1="74" x2="112" y2="80" />
<line stroke-width="1" x1="144" y1="74" x2="121" y2="74" />
</symbol>
<symbol id="WAVEREC" preserveAspectRatio="xMidYMid meet">
<rect stroke="RGB(255, 255, 255)" stroke-width="1" x="7" y="9" rx="0" ry="0" width="29" height="14" />
<line fill="none" stroke="RGB(0, 255, 0)" stroke-width="1" x1="11" y1="5" x2="40" y2="5" />
<ellipse fill="none" stroke="RGB(255, 0, 0)" stroke-width="1" cx="12" cy="17" rx="3" ry="3" />
<line fill="none" stroke="RGB(255, 255, 255)" stroke-width="1" x1="18" y1="17" x2="18" y2="22" />
<line fill="none" stroke="RGB(255, 255, 255)" stroke-width="1" x1="20" y1="15" x2="20" y2="22" />
<line fill="none" stroke="RGB(255, 255, 255)" stroke-width="1" x1="22" y1="13" x2="22" y2="22" />
<line fill="none" stroke="RGB(255, 255, 255)" stroke-width="1" x1="26" y1="17" x2="26" y2="22" />
<line fill="none" stroke="RGB(255, 255, 255)" stroke-width="1" x1="24" y1="15" x2="24" y2="22" />
<line fill="none" stroke="RGB(255, 255, 255)" stroke-width="1" x1="28" y1="19" x2="28" y2="22" />
<line fill="none" stroke="RGB(255, 255, 255)" stroke-width="1" x1="30" y1="14" x2="30" y2="23" />
<polygon stroke="RGB(255, 255, 255)" stroke-width="1" points="7,9  35,9  39,4  11,4 " />
<polygon stroke="RGB(255, 255, 255)" stroke-width="1" points="35,9 35,23 39,18 39,4 " />
</symbol>
<symbol id="GEN">
<ellipse fill="none" cx="85" cy="67" rx="17" ry="17" />
<polyline fill="none" points="85,67 85,67 85,66 85,66 85,66 85,65 85,65 85,65 84,65 84,64 84,64 84,64 84,64 83,63 83,63 83,63 83,63 82,63 82,62 82,62 82,62 81,62 81,62 81,62 80,62 80,62 80,62 79,62 79,62 79,62 78,62 78,62 78,62 78,63 77,63 77,63 77,63 77,63 76,64 76,64 76,64 76,64 76,65 75,65 75,65 75,65 75,66 75,66 75,66 75,67 75,67 " />
<polyline fill="none" points="85,67 85,67 85,68 85,68 85,68 85,69 85,69 85,69 86,69 86,70 86,70 86,70 86,70 87,71 87,71 87,71 87,71 88,71 88,72 88,72 88,72 89,72 89,72 89,72 90,72 90,72 90,72 91,72 91,72 91,72 92,72 92,72 92,72 92,71 93,71 93,71 93,71 93,71 94,70 94,70 94,70 94,70 94,69 95,69 95,69 95,69 95,68 95,68 95,68 95,67 95,67 95,67 " />
<line x1="85" y1="20" x2="85" y2="49" />
</symbol>
<symbol id="TRANSTHREE_STAR_T">
<ellipse fill="none" cx="83" cy="60" rx="17" ry="17" />
<line x1="84" y1="43" x2="84" y2="32" />
<line x1="83" y1="57" x2="83" y2="49" />
<line x1="77" y1="63" x2="83" y2="57" />
<line x1="83" y1="57" x2="91" y2="63" />
<line x1="112" y1="41" x2="57" y2="96" />
<line x1="112" y1="50" x2="112" y2="41" />
<line x1="112" y1="41" x2="103" y2="42" />
</symbol>
<symbol id="CAPACITOR">
<line x1="89" y1="69" x2="63" y2="69" />
<line x1="89" y1="79" x2="63" y2="79" />
<line x1="76" y1="69" x2="76" y2="47" />
</symbol>
</defs>
<g id="backGroundClass">
<rect id="BK" fill="RGB(0, 0, 0)" width="2110" height="1500" />
</g>
<line fill="none" stroke="none" stroke-width="1" class="kV220" x1="234" y1="89" x2="234" y2="89" />
<g id="BusbarSectionClass">
<g fill="none" stroke="RGB(0, 0, 0)" stroke-width="2">
<line stroke="RGB(255,0,255)" stroke-width="4" x1="255" y1="371" x2="1416" y2="371" />
</g>
<g fill="none" stroke="RGB(0, 0, 0)" stroke-width="2">
<line stroke="RGB(255,0,255)" stroke-width="4" x1="251" y1="420" x2="1420" y2="420" />
</g>
<g fill="none" stroke="RGB(0, 0, 0)" stroke-width="2">
<line fill="RGB(255,255,128)" stroke="RGB(255,255,0)" stroke-width="2" x1="551" y1="518" x2="638" y2="518" />
</g>
<g fill="none" stroke="RGB(0, 0, 0)" stroke-width="2">
<line fill="RGB(255,255,128)" stroke="RGB(255,255,0)" stroke-width="2" x1="890" y1="518" x2="977" y2="518" />
</g>
</g>
<g id="BreakerClass" />
<g id="RelayClass">
<g>
<use fill="RGB(128, 255, 0)" transform="translate(1288,420)" xlink:href="#RELAY" />
<metadata>
<cge:PSR_Ref ObjectID="海东BH4628" />
</metadata>
</g>
<g>
<use fill="RGB(128, 255, 0)" transform="translate(1288,449)" xlink:href="#RELAY" />
<metadata>
<cge:PSR_Ref ObjectID="海东BH4629" />
</metadata>
</g>
<g>
<use fill="RGB(128, 255, 0)" transform="translate(1064,222)" xlink:href="#RELAY" />
<metadata>
<cge:PSR_Ref ObjectID="海东BH4613" />
</metadata>
</g>
<g>
<use fill="RGB(128, 255, 0)" transform="translate(1064,251)" xlink:href="#RELAY" />
<metadata>
<cge:PSR_Ref ObjectID="海东BH4615" />
</metadata>
</g>
<g>
<use fill="RGB(128, 255, 0)" transform="translate(1390,859)" xlink:href="#RELAY" />
<metadata>
<cge:PSR_Ref ObjectID="海东BH4651" />
</metadata>
</g>
<g>
<use fill="RGB(128, 255, 0)" transform="translate(1654,864)" xlink:href="#RELAY" />
<metadata>
<cge:PSR_Ref ObjectID="海东BH4650" />
</metadata>
</g>
<g>
<use fill="RGB(128, 255, 0)" transform="translate(1020,595)" xlink:href="#RELAY" />
<metadata>
<cge:PSR_Ref ObjectID="海东BH4626" />
</metadata>
</g>
<g>
<use fill="RGB(128, 255, 0)" transform="translate(1020,564)" xlink:href="#RELAY" />
<metadata>
<cge:PSR_Ref ObjectID="海东BH4627" />
</metadata>
</g>
<g>
<use fill="RGB(128, 255, 0)" transform="translate(1020,534)" xlink:href="#RELAY" />
<metadata>
<cge:PSR_Ref ObjectID="海东BH4625" />
</metadata>
</g>
<g>
<use fill="RGB(128, 255, 0)" transform="translate(1797,862)" xlink:href="#RELAY" />
<metadata>
<cge:PSR_Ref ObjectID="海东BH4649" />
</metadata>
</g>
<g>
<use fill="RGB(128, 255, 0)" transform="translate(537,854)" xlink:href="#RELAY" />
<metadata>
<cge:PSR_Ref ObjectID="海东BH4637" />
</metadata>
</g>
<g>
<use fill="RGB(128, 255, 0)" transform="translate(1522,863)" xlink:href="#RELAY" />
<metadata>
<cge:PSR_Ref ObjectID="海东BH4638" />
</metadata>
</g>
<g>
<use fill="RGB(128, 255, 0)" transform="translate(271,852)" xlink:href="#RELAY" />
<metadata>
<cge:PSR_Ref ObjectID="海东BH4639" />
</metadata>
</g>
<g>
<use fill="RGB(128, 255, 0)" transform="translate(844,520)" xlink:href="#RELAY" />
<metadata>
<cge:PSR_Ref ObjectID="海东BH4653" />
</metadata>
</g>
<g>
<use fill="RGB(128, 255, 0)" transform="translate(467,521)" xlink:href="#RELAY" />
<metadata>
<cge:PSR_Ref ObjectID="海东BH4652" />
</metadata>
</g>
<g>
<use fill="RGB(128, 255, 0)" transform="translate(822,856)" xlink:href="#RELAY" />
<metadata>
<cge:PSR_Ref ObjectID="海东BH4645" />
</metadata>
</g>
<g>
<use fill="RGB(128, 255, 0)" transform="translate(970,858)" xlink:href="#RELAY" />
<metadata>
<cge:PSR_Ref ObjectID="海东BH4646" />
</metadata>
</g>
<g>
<use fill="RGB(128, 255, 0)" transform="translate(1246,860)" xlink:href="#RELAY" />
<metadata>
<cge:PSR_Ref ObjectID="海东BH4635" />
</metadata>
</g>
<g>
<use fill="RGB(128, 255, 0)" transform="translate(1303,663)" xlink:href="#RELAY" />
<metadata>
<cge:PSR_Ref ObjectID="海东BH4644" />
</metadata>
</g>
<g>
<use fill="RGB(128, 255, 0)" transform="translate(1064,280)" xlink:href="#RELAY" />
<metadata>
<cge:PSR_Ref ObjectID="海东BH4614" />
</metadata>
</g>
<g>
<use fill="RGB(128, 255, 0)" transform="translate(1314,223)" xlink:href="#RELAY" />
<metadata>
<cge:PSR_Ref ObjectID="海东BH4612" />
</metadata>
</g>
<g>
<use fill="RGB(128, 255, 0)" transform="translate(1314,252)" xlink:href="#RELAY" />
<metadata>
<cge:PSR_Ref ObjectID="海东BH4611" />
</metadata>
</g>
<g>
<use fill="RGB(128, 255, 0)" transform="translate(1314,281)" xlink:href="#RELAY" />
<metadata>
<cge:PSR_Ref ObjectID="海东BH4610" />
</metadata>
</g>
<g>
<use fill="RGB(128, 255, 0)" transform="translate(538,223)" xlink:href="#RELAY" />
<metadata>
<cge:PSR_Ref ObjectID="海东BH4618" />
</metadata>
</g>
<g>
<use fill="RGB(128, 255, 0)" transform="translate(538,252)" xlink:href="#RELAY" />
<metadata>
<cge:PSR_Ref ObjectID="海东BH4634" />
</metadata>
</g>
<g>
<use fill="RGB(128, 255, 0)" transform="translate(537,281)" xlink:href="#RELAY" />
<metadata>
<cge:PSR_Ref ObjectID="海东BH4616" />
</metadata>
</g>
<g>
<use fill="RGB(128, 255, 0)" transform="translate(312,227)" xlink:href="#RELAY" />
<metadata>
<cge:PSR_Ref ObjectID="海东BH4619" />
</metadata>
</g>
<g>
<use fill="RGB(128, 255, 0)" transform="translate(312,256)" xlink:href="#RELAY" />
<metadata>
<cge:PSR_Ref ObjectID="海东BH4621" />
</metadata>
</g>
<g>
<use fill="RGB(128, 255, 0)" transform="translate(312,285)" xlink:href="#RELAY" />
<metadata>
<cge:PSR_Ref ObjectID="海东BH4620" />
</metadata>
</g>
<g>
<use fill="RGB(128, 255, 0)" transform="translate(673,595)" xlink:href="#RELAY" />
<metadata>
<cge:PSR_Ref ObjectID="海东BH4623" />
</metadata>
</g>
<g>
<use fill="RGB(128, 255, 0)" transform="translate(673,564)" xlink:href="#RELAY" />
<metadata>
<cge:PSR_Ref ObjectID="海东BH4624" />
</metadata>
</g>
<g>
<use fill="RGB(128, 255, 0)" transform="translate(673,534)" xlink:href="#RELAY" />
<metadata>
<cge:PSR_Ref ObjectID="海东BH4622" />
</metadata>
</g>
<g>
<use fill="RGB(128, 255, 0)" transform="translate(673,855)" xlink:href="#RELAY" />
<metadata>
<cge:PSR_Ref ObjectID="海东BH4640" />
</metadata>
</g>
<g>
<use fill="RGB(128, 255, 0)" transform="translate(1103,857)" xlink:href="#RELAY" />
<metadata>
<cge:PSR_Ref ObjectID="海东BH4648" />
</metadata>
</g>
<g>
<use fill="RGB(128, 255, 0)" transform="translate(402,852)" xlink:href="#RELAY" />
<metadata>
<cge:PSR_Ref ObjectID="海东BH4641" />
</metadata>
</g>
<g>
<use fill="RGB(128, 255, 0)" transform="translate(1941,861)" xlink:href="#RELAY" />
<metadata>
<cge:PSR_Ref ObjectID="海东BH4636" />
</metadata>
</g>
<g>
<use fill="RGB(128, 255, 0)" transform="translate(537,311)" xlink:href="#RELAY" />
<metadata>
<cge:PSR_Ref ObjectID="海东BH4617" />
</metadata>
</g>
</g>
<g id="PowerTransformerClass" />
<text fill="RGB(255, 0, 0)" stroke-width="1" x="661" y="101" font-family="宋体" font-size="48" font-weight="700">220kV海东变</text>
<g id="WaveRecClass">
<g>
<use fill="RGB(128, 255, 0)" stroke="RGB(0, 0, 0)" stroke-width="2" transform="translate(1594,412)" xlink:href="#WAVEREC" />
<metadata>
<cge:PSR_Ref ObjectID="海东BH4631" />
</metadata>
</g>
<g>
<use fill="RGB(128, 255, 0)" stroke="RGB(0, 0, 0)" stroke-width="2" transform="translate(1593,448)" xlink:href="#WAVEREC" />
<metadata>
<cge:PSR_Ref ObjectID="海东BH4630" />
</metadata>
</g>
<g>
<use fill="RGB(128, 255, 0)" stroke="RGB(0, 0, 0)" stroke-width="2" transform="translate(1593,482)" xlink:href="#WAVEREC" />
<metadata>
<cge:PSR_Ref ObjectID="海东BH4647" />
</metadata>
</g>
</g>
<g id="ACLineSegmentClass">
<g fill="none" stroke="RGB(0, 0, 0)" stroke-width="2">
<polyline fill="RGB(255,0,0)" stroke="RGB(255,0,255)" points="742,374  742,453  886,453  886,421 " />
</g>
</g>
<g id="SynchronousMachineClass" />
<text fill="RGB(255, 255, 255)" stroke-width="1" x="471" y="157" font-family="宋体" font-size="14" font-weight="400">220kV大海I回线</text>
<text fill="RGB(255, 255, 255)" stroke-width="1" x="1320" y="449" font-family="宋体" font-size="14" font-weight="400">第一套保护RCS915AB_HB</text>
<text fill="RGB(255, 255, 255)" stroke-width="1" x="1240" y="156" font-family="宋体" font-size="14" font-weight="400">220kV黄海II回线</text>
<text fill="RGB(255, 255, 255)" stroke-width="1" x="994" y="154" font-family="宋体" font-size="14" font-weight="400">220kV黄海I回线</text>
<text fill="RGB(255, 255, 255)" stroke-width="1" x="1096" y="249" font-family="宋体" font-size="14" font-weight="400">主一保护RCS931BMV</text>
<text fill="RGB(255, 255, 255)" stroke-width="1" x="1320" y="474" font-family="宋体" font-size="14" font-weight="400">第二套保护RCS915AB_HB</text>
<text fill="RGB(255, 255, 255)" stroke-width="1" x="711" y="558" font-family="宋体" font-size="14" font-weight="400">主一保护PCS978NE</text>
<text fill="RGB(255, 255, 255)" stroke-width="1" x="710" y="591" font-family="宋体" font-size="14" font-weight="400">主二保护PCS978NE</text>
<text fill="RGB(255, 255, 255)" stroke-width="1" x="711" y="621" font-family="宋体" font-size="14" font-weight="400">非电量 RCS-974A</text>
<text fill="RGB(255, 255, 255)" stroke-width="1" x="690" y="470" font-family="宋体" font-size="14" font-weight="400">1#主变</text>
<text fill="RGB(255, 255, 255)" stroke-width="1" x="1012" y="464" font-family="宋体" font-size="14" font-weight="400">2#主变</text>
<g id="CapacitorClass" />
<text fill="RGB(255, 255, 255)" stroke-width="1" x="166" y="378" font-family="宋体" font-size="14" font-weight="400">220kV I 母</text>
<text fill="RGB(255, 255, 255)" stroke-width="1" x="159" y="422" font-family="宋体" font-size="14" font-weight="400">220kV II 母</text>
<g fill="none" stroke="RGB(0, 0, 0)" stroke-width="2">
<polyline stroke="RGB(0,255,0)" transform="translate(-150,-19) rotate(360.00,811,743)" points="826,782  826,704  797,704 " />
</g>
<g fill="none" stroke="RGB(0, 0, 0)" stroke-width="2">
<polyline stroke="RGB(0,255,0)" transform="translate(186,-17) rotate(360.00,811,743)" points="826,782  826,704  797,704 " />
</g>
<g fill="none" stroke="RGB(255,128,64)" stroke-width="2">
<line stroke-width="4" class="kV110" x1="203" y1="720" x2="2002" y2="720" />
</g>
<line fill="none" stroke-width="2" class="kV110" x1="646" y1="533" x2="646" y2="718" />
<g fill="none" stroke="RGB(255,128,64)" stroke-width="2">
<line stroke-width="4" class="kV110" x1="202" y1="766" x2="2000" y2="766" />
</g>
<text fill="RGB(255, 255, 255)" stroke-width="1" x="110" y="772" font-family="宋体" font-size="14" font-weight="400">110kV II 母</text>
<text fill="RGB(255, 255, 255)" stroke-width="1" x="117" y="726" font-family="宋体" font-size="14" font-weight="400">110kV I 母</text>
<text fill="RGB(255, 255, 255)" stroke-width="1" x="1360" y="934" font-family="宋体" font-size="14" font-weight="400">西海线</text>
<text fill="RGB(255, 255, 255)" stroke-width="1" x="1620" y="939" font-family="宋体" font-size="14" font-weight="400">巨海线</text>
<use fill="none" stroke="RGB(0,255,0)" stroke-width="2" transform="translate(561,430) rotate(-540.00,83,92)" xlink:href="#TRANSTHREE_TRIAN" />
<use fill="RGB(0,255,0)" stroke="RGB(0,255,0)" stroke-width="2" transform="translate(566,537)" xlink:href="#BREAKER_ON" />
<use fill="none" stroke="RGB(0,255,0)" stroke-width="2" transform="translate(900,431) rotate(-540.00,83,92)" xlink:href="#TRANSTHREE_TRIAN" />
<use fill="RGB(0,255,0)" stroke="RGB(0,255,0)" stroke-width="2" transform="translate(903,541)" xlink:href="#BREAKER_ON" />
<line fill="none" stroke-width="2" class="kV110" x1="984" y1="534" x2="984" y2="722" />
<text fill="RGB(255, 255, 255)" stroke-width="1" x="1767" y="937" font-family="宋体" font-size="14" font-weight="400">海牛线</text>
<g transform="translate(-147,-42)">
<use fill="RGB(255,0,255)" stroke="RGB(255,0,255)" stroke-width="2" transform="translate(1107,286)" xlink:href="#BREAKER_ON" />
<line stroke="RGB(255,0,255)" stroke-width="3" class="kV220" x1="1187" y1="225" x2="1187" y2="414" />
<g fill="none" stroke="RGB(0, 0, 0)" stroke-width="2">
<polyline stroke="RGB(255,0,255)" points="1217,464  1217,386  1188,386 " />
</g>
</g>
<g transform="translate(-676,-44)">
<use fill="RGB(255,0,255)" stroke="RGB(255,0,255)" stroke-width="2" transform="translate(1107,286)" xlink:href="#BREAKER_ON" />
<line stroke="RGB(255,0,255)" stroke-width="3" class="kV220" x1="1187" y1="225" x2="1187" y2="414" />
<g fill="none" stroke="RGB(0, 0, 0)" stroke-width="2">
<polyline stroke="RGB(255,0,255)" points="1217,464  1217,386  1188,386 " />
</g>
</g>
<g transform="translate(-900,-43)">
<use fill="RGB(255,0,255)" stroke="RGB(255,0,255)" stroke-width="2" transform="translate(1107,286)" xlink:href="#BREAKER_ON" />
<line stroke="RGB(255,0,255)" stroke-width="3" class="kV220" x1="1187" y1="225" x2="1187" y2="414" />
<g fill="none" stroke="RGB(0, 0, 0)" stroke-width="2">
<polyline stroke="RGB(255,0,255)" points="1217,464  1217,386  1188,386 " />
</g>
</g>
<g transform="translate(1,-45)">
<use fill="RGB(255,0,255)" stroke="RGB(255,0,255)" stroke-width="2" transform="translate(565,439)" xlink:href="#BREAKER_ON" />
<use fill="none" stroke="RGB(255,0,255)" stroke-width="2" transform="translate(561,488)" xlink:href="#TRANSTHREE_STAR_T" />
<g fill="none" stroke="RGB(0, 0, 0)" stroke-width="2">
<polyline stroke="RGB(255,0,255)" transform="translate(-389,15) rotate(180.00,1020,441)" points="1035,480  1035,402  1006,402 " />
</g>
<line stroke="RGB(255,0,255)" stroke-width="3" class="kV220" x1="645" y1="464" x2="645" y2="526" />
</g>
<g transform="translate(339,-43)">
<use fill="RGB(255,0,255)" stroke="RGB(255,0,255)" stroke-width="2" transform="translate(565,439)" xlink:href="#BREAKER_ON" />
<use fill="none" stroke="RGB(255,0,255)" stroke-width="2" transform="translate(561,488)" xlink:href="#TRANSTHREE_STAR_T" />
<g fill="none" stroke="RGB(0, 0, 0)" stroke-width="2">
<polyline stroke="RGB(255,0,255)" transform="translate(-389,15) rotate(180.00,1020,441)" points="1035,480  1035,402  1006,402 " />
</g>
<line stroke="RGB(255,0,255)" stroke-width="3" class="kV220" x1="645" y1="464" x2="645" y2="526" />
</g>
<g transform="translate(-264,-44)">
<use fill="RGB(0,255,0)" stroke="RGB(0,255,0)" stroke-width="2" transform="translate(1282,811)" xlink:href="#BREAKER_ON" />
<g fill="none" stroke="RGB(0, 0, 0)" stroke-width="2">
<polyline stroke="RGB(0,255,0)" transform="translate(536,60) rotate(180.00,811,743)" points="826,782  826,704  797,704 " />
</g>
<line stroke="RGB(0,255,0)" stroke-width="2" class="kV220" x1="1362" y1="811" x2="1362" y2="942" />
</g>
<g transform="translate(-693,-45)">
<use fill="RGB(0,255,0)" stroke="RGB(0,255,0)" stroke-width="2" transform="translate(1282,811)" xlink:href="#BREAKER_ON" />
<g fill="none" stroke="RGB(0, 0, 0)" stroke-width="2">
<polyline stroke="RGB(0,255,0)" transform="translate(536,60) rotate(180.00,811,743)" points="826,782  826,704  797,704 " />
</g>
<line stroke="RGB(0,255,0)" stroke-width="2" class="kV220" x1="1362" y1="811" x2="1362" y2="942" />
</g>
<g transform="translate(-964,-46)">
<use fill="RGB(0,255,0)" stroke="RGB(0,255,0)" stroke-width="2" transform="translate(1282,811)" xlink:href="#BREAKER_ON" />
<g fill="none" stroke="RGB(0, 0, 0)" stroke-width="2">
<polyline stroke="RGB(0,255,0)" transform="translate(536,60) rotate(180.00,811,743)" points="826,782  826,704  797,704 " />
</g>
<line stroke="RGB(0,255,0)" stroke-width="2" class="kV220" x1="1362" y1="811" x2="1362" y2="942" />
</g>
<text fill="RGB(255, 255, 255)" stroke-width="1" x="1096" y="277" font-family="宋体" font-size="14" font-weight="400">主二保护RCS931BMV</text>
<text fill="RGB(255, 255, 255)" stroke-width="1" x="571" y="884" font-family="宋体" font-size="14" font-weight="400">CSC-161A</text>
<text fill="RGB(255, 255, 255)" stroke-width="1" x="505" y="930" font-family="宋体" font-size="14" font-weight="400">下海荒滇</text>
<g transform="translate(-1094,-45)">
<use fill="RGB(0,255,0)" stroke="RGB(0,255,0)" stroke-width="2" transform="translate(1282,811)" xlink:href="#BREAKER_ON" />
<g fill="none" stroke="RGB(0, 0, 0)" stroke-width="2">
<polyline stroke="RGB(0,255,0)" transform="translate(536,60) rotate(180.00,811,743)" points="826,782  826,704  797,704 " />
</g>
<line stroke="RGB(0,255,0)" stroke-width="2" class="kV220" x1="1362" y1="811" x2="1362" y2="942" />
</g>
<text fill="RGB(255, 255, 255)" stroke-width="1" x="1492" y="938" font-family="宋体" font-size="14" font-weight="400">老海线</text>
<g transform="translate(-827,-46)">
<use fill="RGB(0,255,0)" stroke="RGB(0,255,0)" stroke-width="2" transform="translate(1282,811)" xlink:href="#BREAKER_ON" />
<g fill="none" stroke="RGB(0, 0, 0)" stroke-width="2">
<polyline stroke="RGB(0,255,0)" transform="translate(536,60) rotate(180.00,811,743)" points="826,782  826,704  797,704 " />
</g>
<line stroke="RGB(0,255,0)" stroke-width="2" class="kV220" x1="1362" y1="811" x2="1362" y2="942" />
</g>
<text fill="RGB(255, 255, 255)" stroke-width="1" x="239" y="930" font-family="宋体" font-size="14" font-weight="400">海牵线</text>
<g transform="translate(-396,-43)">
<use fill="RGB(0,255,0)" stroke="RGB(0,255,0)" stroke-width="2" transform="translate(1282,811)" xlink:href="#BREAKER_ON" />
<g fill="none" stroke="RGB(0, 0, 0)" stroke-width="2">
<polyline stroke="RGB(0,255,0)" transform="translate(536,60) rotate(180.00,811,743)" points="826,782  826,704  797,704 " />
</g>
<line stroke="RGB(0,255,0)" stroke-width="2" class="kV220" x1="1362" y1="811" x2="1362" y2="942" />
</g>
<text fill="RGB(255, 255, 255)" stroke-width="1" x="1422" y="889" font-family="宋体" font-size="14" font-weight="400">PRS753D</text>
<text fill="RGB(255, 255, 255)" stroke-width="1" x="1557" y="893" font-family="宋体" font-size="14" font-weight="400">CSC163AN</text>
<text fill="RGB(255, 255, 255)" stroke-width="1" x="1831" y="892" font-family="宋体" font-size="14" font-weight="400">CSC-161A</text>
<text fill="RGB(255, 255, 255)" stroke-width="1" x="307" y="882" font-family="宋体" font-size="14" font-weight="400">PCS943N</text>
<text fill="RGB(255, 255, 255)" stroke-width="1" x="1690" y="894" font-family="宋体" font-size="14" font-weight="400">PCS943N</text>
<use fill="RGB(255,0,255)" stroke="RGB(255,0,255)" stroke-width="2" transform="translate(732,379) rotate(90.00,80,72)" xlink:href="#BREAKER_ON" />
<text fill="RGB(255, 255, 255)" stroke-width="1" x="820" y="479" font-family="宋体" font-size="14" font-weight="400">母联</text>
<text fill="RGB(255, 255, 255)" stroke-width="1" x="465" y="521" font-family="宋体" font-size="14" font-weight="400">35kV II 母</text>
<text fill="RGB(255, 255, 255)" stroke-width="1" x="842" y="512" font-family="宋体" font-size="14" font-weight="400">35kV I 母</text>
<text fill="RGB(255, 255, 255)" stroke-width="1" x="1007" y="321" font-family="宋体" font-size="14" font-weight="400">274</text>
<text fill="RGB(255, 255, 255)" stroke-width="1" x="251" y="321" font-family="宋体" font-size="14" font-weight="400">271</text>
<text fill="RGB(255, 255, 255)" stroke-width="1" x="473" y="319" font-family="宋体" font-size="14" font-weight="400">272</text>
<text fill="RGB(255, 255, 255)" stroke-width="1" x="791" y="478" font-family="宋体" font-size="14" font-weight="400">212</text>
<text fill="RGB(255, 255, 255)" stroke-width="1" x="608" y="472" font-family="宋体" font-size="14" font-weight="400">201</text>
<text fill="RGB(255, 255, 255)" stroke-width="1" x="947" y="472" font-family="宋体" font-size="14" font-weight="400">202</text>
<text fill="RGB(255, 255, 255)" stroke-width="1" x="611" y="614" font-family="宋体" font-size="14" font-weight="400">102</text>
<text fill="RGB(255, 255, 255)" stroke-width="1" x="945" y="619" font-family="宋体" font-size="14" font-weight="400">101</text>
<text fill="RGB(255, 255, 255)" stroke-width="1" x="504" y="846" font-family="宋体" font-size="14" font-weight="400">173</text>
<text fill="RGB(255, 255, 255)" stroke-width="1" x="366" y="846" font-family="宋体" font-size="14" font-weight="400">172</text>
<text fill="RGB(255, 255, 255)" stroke-width="1" x="234" y="846" font-family="宋体" font-size="14" font-weight="400">171</text>
<text fill="RGB(255, 255, 255)" stroke-width="1" x="935" y="846" font-family="宋体" font-size="14" font-weight="400">176</text>
<text fill="RGB(255, 255, 255)" stroke-width="1" x="637" y="846" font-family="宋体" font-size="14" font-weight="400">174</text>
<text fill="RGB(255, 255, 255)" stroke-width="1" x="1066" y="846" font-family="宋体" font-size="14" font-weight="400">177</text>
<text fill="RGB(255, 255, 255)" stroke-width="1" x="505" y="546" font-family="宋体" font-size="14" font-weight="400">RCS-915AB</text>
<text fill="RGB(255, 255, 255)" stroke-width="1" x="882" y="544" font-family="宋体" font-size="14" font-weight="400">RCS-915AB</text>
<text fill="RGB(255, 255, 255)" stroke-width="1" x="792" y="931" font-family="宋体" font-size="14" font-weight="400">海荒线</text>
<g transform="translate(-121,-45)">
<use fill="RGB(0,255,0)" stroke="RGB(0,255,0)" stroke-width="2" transform="translate(1282,811)" xlink:href="#BREAKER_ON" />
<g fill="none" stroke="RGB(0, 0, 0)" stroke-width="2">
<polyline stroke="RGB(0,255,0)" transform="translate(536,60) rotate(180.00,811,743)" points="826,782  826,704  797,704 " />
</g>
<line stroke="RGB(0,255,0)" stroke-width="2" class="kV220" x1="1362" y1="811" x2="1362" y2="942" />
</g>
<text fill="RGB(255, 255, 255)" stroke-width="1" x="856" y="886" font-family="宋体" font-size="14" font-weight="400">CSC-161A</text>
<text fill="RGB(255, 255, 255)" stroke-width="1" x="1209" y="845" font-family="宋体" font-size="14" font-weight="400">179</text>
<text fill="RGB(255, 255, 255)" stroke-width="1" x="940" y="933" font-family="宋体" font-size="14" font-weight="400">海凤I</text>
<g transform="translate(24,-46)">
<use fill="RGB(0,255,0)" stroke="RGB(0,255,0)" stroke-width="2" transform="translate(1282,811)" xlink:href="#BREAKER_ON" />
<g fill="none" stroke="RGB(0, 0, 0)" stroke-width="2">
<polyline stroke="RGB(0,255,0)" transform="translate(536,60) rotate(180.00,811,743)" points="826,782  826,704  797,704 " />
</g>
<line stroke="RGB(0,255,0)" stroke-width="2" class="kV220" x1="1362" y1="811" x2="1362" y2="942" />
</g>
<text fill="RGB(255, 255, 255)" stroke-width="1" x="1004" y="888" font-family="宋体" font-size="14" font-weight="400">CSC-161A</text>
<text fill="RGB(255, 255, 255)" stroke-width="1" x="1354" y="844" font-family="宋体" font-size="14" font-weight="400">181</text>
<text fill="RGB(255, 255, 255)" stroke-width="1" x="237" y="159" font-family="宋体" font-size="14" font-weight="400">220kV大海II回线</text>
<g transform="translate(99,-44)">
<use fill="RGB(255,0,255)" stroke="RGB(255,0,255)" stroke-width="2" transform="translate(1107,286)" xlink:href="#BREAKER_ON" />
<line stroke="RGB(255,0,255)" stroke-width="3" class="kV220" x1="1187" y1="225" x2="1187" y2="414" />
<g fill="none" stroke="RGB(0, 0, 0)" stroke-width="2">
<polyline stroke="RGB(255,0,255)" points="1217,464  1217,386  1188,386 " />
</g>
</g>
<text fill="RGB(255, 255, 255)" stroke-width="1" x="1251" y="319" font-family="宋体" font-size="14" font-weight="400">275</text>
<text fill="RGB(255, 255, 255)" stroke-width="1" x="1212" y="935" font-family="宋体" font-size="14" font-weight="400">巨海II线</text>
<g transform="translate(-543,-46)">
<use fill="RGB(0,255,0)" stroke="RGB(0,255,0)" stroke-width="2" transform="translate(1282,811)" xlink:href="#BREAKER_ON" />
<g fill="none" stroke="RGB(0, 0, 0)" stroke-width="2">
<polyline stroke="RGB(0,255,0)" transform="translate(536,60) rotate(180.00,811,743)" points="826,782  826,704  797,704 " />
</g>
<line stroke="RGB(0,255,0)" stroke-width="2" class="kV220" x1="1362" y1="811" x2="1362" y2="942" />
</g>
<text fill="RGB(255, 255, 255)" stroke-width="1" x="1282" y="890" font-family="宋体" font-size="14" font-weight="400">PCS-943TM</text>
<text fill="RGB(255, 255, 255)" stroke-width="1" x="787" y="845" font-family="宋体" font-size="14" font-weight="400">175</text>
<text fill="RGB(255, 255, 255)" stroke-width="1" x="1335" y="688" font-family="宋体" font-size="14" font-weight="400">110kV母线保护RCS915AB</text>
<text fill="RGB(255, 255, 255)" stroke-width="1" x="1096" y="306" font-family="宋体" font-size="14" font-weight="400">断路器保护RCS923A</text>
<text fill="RGB(255, 255, 255)" stroke-width="1" x="1346" y="250" font-family="宋体" font-size="14" font-weight="400">主一保护PSL603GCM</text>
<text fill="RGB(255, 255, 255)" stroke-width="1" x="1346" y="278" font-family="宋体" font-size="14" font-weight="400">主二保护PSL603GCM</text>
<text fill="RGB(255, 255, 255)" stroke-width="1" x="1346" y="307" font-family="宋体" font-size="14" font-weight="400">断路器保护PSL631A</text>
<text fill="RGB(255, 255, 255)" stroke-width="1" x="570" y="250" font-family="宋体" font-size="14" font-weight="400">主一保护RCS931BMV</text>
<text fill="RGB(255, 255, 255)" stroke-width="1" x="570" y="278" font-family="宋体" font-size="14" font-weight="400">主二保护RCS931BMV</text>
<text fill="RGB(255, 255, 255)" stroke-width="1" x="569" y="307" font-family="宋体" font-size="14" font-weight="400">过压保护RCS925A</text>
<text fill="RGB(255, 255, 255)" stroke-width="1" x="344" y="254" font-family="宋体" font-size="14" font-weight="400">主一保护PSL603GCM</text>
<text fill="RGB(255, 255, 255)" stroke-width="1" x="344" y="282" font-family="宋体" font-size="14" font-weight="400">主二保护PSL603GCM</text>
<text fill="RGB(255, 255, 255)" stroke-width="1" x="344" y="311" font-family="宋体" font-size="14" font-weight="400">断路器保护PSL631A</text>
<text fill="RGB(255, 255, 255)" stroke-width="1" x="1055" y="559" font-family="宋体" font-size="14" font-weight="400">主一保护PCS978NE</text>
<text fill="RGB(255, 255, 255)" stroke-width="1" x="1054" y="592" font-family="宋体" font-size="14" font-weight="400">主二保护PCS978NE</text>
<text fill="RGB(255, 255, 255)" stroke-width="1" x="1055" y="622" font-family="宋体" font-size="14" font-weight="400">非电量 RCS-974A</text>
<text fill="RGB(255, 255, 255)" stroke-width="1" x="643" y="930" font-family="宋体" font-size="14" font-weight="400">海滇线</text>
<g transform="translate(290,-43)">
<use fill="RGB(0,255,0)" stroke="RGB(0,255,0)" stroke-width="2" transform="translate(1282,811)" xlink:href="#BREAKER_ON" />
<g fill="none" stroke="RGB(0, 0, 0)" stroke-width="2">
<polyline stroke="RGB(0,255,0)" transform="translate(536,60) rotate(180.00,811,743)" points="826,782  826,704  797,704 " />
</g>
<line stroke="RGB(0,255,0)" stroke-width="2" class="kV220" x1="1362" y1="811" x2="1362" y2="942" />
</g>
<text fill="RGB(255, 255, 255)" stroke-width="1" x="1071" y="935" font-family="宋体" font-size="14" font-weight="400">海凤II线</text>
<g transform="translate(158,-42)">
<use fill="RGB(0,255,0)" stroke="RGB(0,255,0)" stroke-width="2" transform="translate(1282,811)" xlink:href="#BREAKER_ON" />
<g fill="none" stroke="RGB(0, 0, 0)" stroke-width="2">
<polyline stroke="RGB(0,255,0)" transform="translate(536,60) rotate(180.00,811,743)" points="826,782  826,704  797,704 " />
</g>
<line stroke="RGB(0,255,0)" stroke-width="2" class="kV220" x1="1362" y1="811" x2="1362" y2="942" />
</g>
<text fill="RGB(255, 255, 255)" stroke-width="1" x="707" y="885" font-family="宋体" font-size="14" font-weight="400">CSC-161A</text>
<text fill="RGB(255, 255, 255)" stroke-width="1" x="1139" y="887" font-family="宋体" font-size="14" font-weight="400">CSC-161A</text>
<text fill="RGB(255, 255, 255)" stroke-width="1" x="1489" y="847" font-family="宋体" font-size="14" font-weight="400">182</text>
<text fill="RGB(255, 255, 255)" stroke-width="1" x="1620" y="847" font-family="宋体" font-size="14" font-weight="400">183</text>
<text fill="RGB(255, 255, 255)" stroke-width="1" x="372" y="927" font-family="宋体" font-size="14" font-weight="400">海宾东线</text>
<g transform="translate(433,-44)">
<use fill="RGB(0,255,0)" stroke="RGB(0,255,0)" stroke-width="2" transform="translate(1282,811)" xlink:href="#BREAKER_ON" />
<g fill="none" stroke="RGB(0, 0, 0)" stroke-width="2">
<polyline stroke="RGB(0,255,0)" transform="translate(536,60) rotate(180.00,811,743)" points="826,782  826,704  797,704 " />
</g>
<line stroke="RGB(0,255,0)" stroke-width="2" class="kV220" x1="1362" y1="811" x2="1362" y2="942" />
</g>
<text fill="RGB(255, 255, 255)" stroke-width="1" x="436" y="882" font-family="宋体" font-size="14" font-weight="400">PRS753D</text>
<text fill="RGB(255, 255, 255)" stroke-width="1" x="1763" y="846" font-family="宋体" font-size="14" font-weight="400">186</text>
<text fill="RGB(255, 255, 255)" stroke-width="1" x="1911" y="937" font-family="宋体" font-size="14" font-weight="400">海宾II回</text>
<g transform="translate(578,-45)">
<use fill="RGB(0,255,0)" stroke="RGB(0,255,0)" stroke-width="2" transform="translate(1282,811)" xlink:href="#BREAKER_ON" />
<g fill="none" stroke="RGB(0, 0, 0)" stroke-width="2">
<polyline stroke="RGB(0,255,0)" transform="translate(536,60) rotate(180.00,811,743)" points="826,782  826,704  797,704 " />
</g>
<line stroke="RGB(0,255,0)" stroke-width="2" class="kV220" x1="1362" y1="811" x2="1362" y2="942" />
</g>
<text fill="RGB(255, 255, 255)" stroke-width="1" x="1975" y="893" font-family="宋体" font-size="14" font-weight="400">CSC-161A</text>
<text fill="RGB(255, 255, 255)" stroke-width="1" x="1908" y="845" font-family="宋体" font-size="14" font-weight="400">187</text>
<text fill="RGB(255, 255, 255)" stroke-width="1" x="569" y="337" font-family="宋体" font-size="14" font-weight="400">断路器保护RCS923A</text>
<text fill="RGB(255, 255, 255)" stroke-width="1" x="1643" y="434" font-family="宋体" font-size="14" font-weight="400">主变故障录波ZH-3</text>
<text fill="RGB(255, 255, 255)" stroke-width="1" x="1642" y="470" font-family="宋体" font-size="14" font-weight="400">220kV线路故障录波ZH-3</text>
<text fill="RGB(255, 255, 255)" stroke-width="1" x="1642" y="504" font-family="宋体" font-size="14" font-weight="400">110kV线路故障录波ZH-3</text>
</svg>
