<?xml version="1.0"?>
<!DOCTYPE svg PUBLIC "-//W3C//DTD SVG 1.1//EN" "http://www.w3.org/Graphics/SVG/1.1/DTD/svg11.dtd">
<svg xmlns="http://www.w3.org/2000/svg" xmlns:xlink="http://www.w3.org/1999/xlink" xmlns:PSR="http://www.cim.com" xmlns:cge="http://iec.ch/TC57/2005/SVG-schema#" width="1680" height="951" viewBox="0 0 1680 951">
<defs>
<symbol id="BREAKER_ON">
<polygon points="74,61 86,61 86,81 74,81" />
<line x1="80" y1="61" x2="80" y2="39" />
<line x1="80" y1="103" x2="80" y2="81" />
</symbol>
<style type="text/css"><![CDATA[
.kV3 {stroke:rgb(0,0,0)}
.kV6 {stroke:rgb(255,102,0)}
.kV10 {stroke:rgb(128,128,0)}
.kV13 {stroke:rgb(153,204,0)}
.kV15 {stroke:rgb(153,204,0)}
.kV20 {stroke:rgb(153,51,102)}
.kV35 {stroke:rgb(255,255,0)}
.kV110 {stroke:rgb(255,0,0)}
.kV220 {stroke:rgb(237,12,236)}
.kV330 {stroke:rgb(255,102,0)}
.kV500 {stroke:rgb(0,255,255)}
.kV800 {stroke:rgb(0,0,255)}]]></style>
<symbol id="TRANSTHREE_STAR_T">
<ellipse fill="none" cx="83" cy="60" rx="17" ry="17" />
<line x1="84" y1="43" x2="84" y2="32" />
<line x1="83" y1="57" x2="83" y2="49" />
<line x1="77" y1="63" x2="83" y2="57" />
<line x1="83" y1="57" x2="91" y2="63" />
<line x1="112" y1="41" x2="57" y2="96" />
<line x1="112" y1="50" x2="112" y2="41" />
<line x1="112" y1="41" x2="103" y2="42" />
</symbol>
<symbol id="TRANSTHREE_STAR">
<ellipse fill="none" cx="104" cy="74" rx="17" ry="17" />
<line x1="104" y1="74" x2="104" y2="66" />
<line x1="98" y1="80" x2="104" y2="74" />
<line x1="104" y1="74" x2="112" y2="80" />
<line x1="135" y1="74" x2="121" y2="74" />
</symbol>
<symbol id="TRANSTHREE_TRIAN">
<ellipse fill="none" cx="83" cy="85" rx="17" ry="17" />
<line x1="83" y1="116" x2="83" y2="102" />
<polygon fill="none" points="91,93 77,93 84,81" />
</symbol>
<symbol id="WAVEREC">
<rect stroke="RGB(255, 255, 255)" stroke-width="1" x="7" y="9" rx="0" ry="0" width="29" height="14" />
<line fill="none" stroke="RGB(0, 255, 0)" stroke-width="1" x1="11" y1="5" x2="40" y2="5" />
<ellipse fill="none" stroke="RGB(255, 0, 0)" stroke-width="1" cx="12" cy="17" rx="3" ry="3" />
<line fill="none" stroke="RGB(255, 255, 255)" stroke-width="1" x1="18" y1="17" x2="18" y2="22" />
<line fill="none" stroke="RGB(255, 255, 255)" stroke-width="1" x1="20" y1="15" x2="20" y2="22" />
<line fill="none" stroke="RGB(255, 255, 255)" stroke-width="1" x1="22" y1="13" x2="22" y2="22" />
<line fill="none" stroke="RGB(255, 255, 255)" stroke-width="1" x1="26" y1="17" x2="26" y2="22" />
<line fill="none" stroke="RGB(255, 255, 255)" stroke-width="1" x1="24" y1="15" x2="24" y2="22" />
<line fill="none" stroke="RGB(255, 255, 255)" stroke-width="1" x1="28" y1="19" x2="28" y2="22" />
<line fill="none" stroke="RGB(255, 255, 255)" stroke-width="1" x1="30" y1="14" x2="30" y2="23" />
<polygon stroke="RGB(255, 255, 255)" stroke-width="1" points="7,9  35,9  39,4  11,4" />
<polygon stroke="RGB(255, 255, 255)" stroke-width="1" points="35,9 35,23 39,18 39,4" />
</symbol>
<symbol id="RELAY">
<rect stroke="RGB(255, 255, 255)" stroke-width="1" x="6" y="5" rx="0" ry="0" width="19" height="20" />
<line fill="none" stroke="RGB(255, 255, 255)" stroke-width="1" x1="13" y1="9" x2="18" y2="9" />
<line fill="none" stroke="RGB(255, 255, 255)" stroke-width="1" x1="16" y1="7" x2="16" y2="24" />
<line fill="none" stroke="RGB(255, 255, 128)" stroke-width="1" x1="7" y1="7" x2="13" y2="7" />
<line fill="none" stroke="RGB(255, 255, 128)" stroke-width="1" x1="18" y1="7" x2="24" y2="7" />
<line fill="none" stroke="RGB(255, 255, 255)" stroke-width="1" x1="13" y1="20" x2="18" y2="20" />
<line fill="none" stroke="RGB(0, 0, 0)" stroke-width="1" x1="11" y1="10" x2="11" y2="16" />
<line fill="none" stroke="RGB(0, 0, 0)" stroke-width="1" x1="9" y1="10" x2="9" y2="16" />
<line fill="none" stroke="RGB(0, 0, 0)" stroke-width="1" x1="20" y1="10" x2="20" y2="16" />
<line fill="none" stroke="RGB(0, 0, 0)" stroke-width="1" x1="22" y1="10" x2="22" y2="16" />
<line fill="none" stroke="RGB(0, 0, 0)" stroke-width="1" x1="7" y1="19" x2="13" y2="19" />
<line fill="none" stroke="RGB(0, 0, 0)" stroke-width="1" x1="7" y1="21" x2="13" y2="21" />
<line fill="none" stroke="RGB(0, 0, 0)" stroke-width="1" x1="18" y1="19" x2="24" y2="19" />
<line fill="none" stroke="RGB(0, 0, 0)" stroke-width="1" x1="18" y1="21" x2="24" y2="21" />
</symbol>
</defs>
<g id="backGroundClass">
<rect fill="RGB(0, 64, 64)" x="0" y="0" width="1680" height="951" />
</g>
<line fill="none" stroke="RGB(255,0,0)" stroke-width="2" x1="40" y1="279" x2="1578" y2="279" />
<line fill="none" stroke="RGB(255,0,0)" stroke-width="2" x1="41" y1="377" x2="1579" y2="377" />
<line fill="none" stroke="RGB(255,0,0)" stroke-width="2" x1="41" y1="409" x2="1579" y2="409" />
<g id="BreakerClass">
<use fill="none" stroke="RGB(255,0,0)" stroke-width="2" transform="translate(347,241)" xlink:href="#BREAKER_ON" />
<use fill="none" stroke="RGB(255,0,0)" stroke-width="2" transform="translate(580,242)" xlink:href="#BREAKER_ON" />
<use fill="none" stroke="RGB(0,255,0)" stroke-width="2" transform="translate(11,703)" xlink:href="#BREAKER_ON" />
<use fill="none" stroke="RGB(0,255,0)" stroke-width="2" transform="translate(264,541)" xlink:href="#BREAKER_ON" />
<use fill="none" stroke="RGB(0,255,0)" stroke-width="2" transform="translate(352,702)" xlink:href="#BREAKER_ON" />
<use fill="none" stroke="RGB(0,255,0)" stroke-width="2" transform="translate(488,671) rotate(90.00,80,71)" xlink:href="#BREAKER_ON" />
<use fill="none" stroke="RGB(0,255,0)" stroke-width="2" transform="translate(734,702)" xlink:href="#BREAKER_ON" />
<use fill="none" stroke="RGB(0,255,0)" stroke-width="2" transform="translate(853,702)" xlink:href="#BREAKER_ON" />
<use fill="none" stroke="RGB(0,255,0)" stroke-width="2" transform="translate(979,702)" xlink:href="#BREAKER_ON" />
<use fill="none" stroke="RGB(0,255,0)" stroke-width="2" transform="translate(1336,702)" xlink:href="#BREAKER_ON" />
<use fill="none" stroke="RGB(0,255,0)" stroke-width="2" transform="translate(1200,702)" xlink:href="#BREAKER_ON" />
<use fill="none" stroke="RGB(255,0,0)" stroke-width="2" transform="translate(766,241)" xlink:href="#BREAKER_ON" />
<use fill="none" stroke="RGB(255,0,0)" stroke-width="2" transform="translate(936,242)" xlink:href="#BREAKER_ON" />
<use fill="none" stroke="RGB(255,0,0)" stroke-width="2" transform="translate(1046,274) rotate(90.00,80,71)" xlink:href="#BREAKER_ON" />
<use fill="none" stroke="RGB(255,0,0)" stroke-width="2" transform="translate(1113,242)" xlink:href="#BREAKER_ON" />
<use fill="none" stroke="RGB(255,0,0)" stroke-width="2" transform="translate(267,399)" xlink:href="#BREAKER_ON" />
<use fill="none" stroke="RGB(255,0,0)" stroke-width="2" transform="translate(1061,398)" xlink:href="#BREAKER_ON" />
<use fill="none" stroke="RGB(0,255,0)" stroke-width="2" transform="translate(1058,540)" xlink:href="#BREAKER_ON" />
<use fill="none" stroke="RGB(0,255,0)" stroke-width="2" transform="translate(1104,697)" xlink:href="#BREAKER_ON" />
<use fill="none" stroke="RGB(0,255,0)" stroke-width="2" transform="translate(609,704)" xlink:href="#BREAKER_ON" />
<use fill="none" stroke="RGB(255,0,0)" stroke-width="2" transform="translate(152,240)" xlink:href="#BREAKER_ON" />
</g>
<line fill="none" stroke="RGB(255,0,0)" stroke-width="2" x1="427" y1="344" x2="427" y2="408" />
<line fill="none" stroke="RGB(255,0,0)" stroke-width="2" x1="427" y1="344" x2="459" y2="344" />
<line fill="none" stroke="RGB(255,0,0)" stroke-width="2" x1="460" y1="344" x2="460" y2="376" />
<line fill="none" stroke="RGB(255,0,0)" stroke-width="2" x1="426" y1="176" x2="426" y2="280" />
<text fill="RGB(255,255,255)" stroke="none" stroke-width="1" x="405" y="168" font-family="黑体" font-size="12">浮德Ⅱ线</text>
<line fill="none" stroke="RGB(255,0,0)" stroke-width="2" x1="660" y1="345" x2="660" y2="409" />
<line fill="none" stroke="RGB(255,0,0)" stroke-width="2" x1="660" y1="345" x2="692" y2="345" />
<line fill="none" stroke="RGB(255,0,0)" stroke-width="2" x1="690" y1="345" x2="690" y2="377" />
<text fill="RGB(255,255,255)" stroke="none" stroke-width="1" x="669" y="317" font-family="黑体" font-size="12">606</text>
<line fill="none" stroke="RGB(0,255,0)" stroke-width="2" x1="40" y1="680" x2="1578" y2="680" />
<line fill="none" stroke="RGB(0,255,0)" stroke-width="2" x1="40" y1="708" x2="1578" y2="708" />
<line fill="none" stroke="RGB(0,255,0)" stroke-width="2" x1="39" y1="819" x2="1577" y2="819" />
<line fill="none" stroke="RGB(0,255,0)" stroke-width="2" transform="translate(-109,169)" x1="200" y1="511" x2="200" y2="575" />
<line fill="none" stroke="RGB(0,255,0)" stroke-width="2" transform="translate(-110,232)" x1="200" y1="511" x2="232" y2="511" />
<line fill="none" stroke="RGB(0,255,0)" stroke-width="2" transform="translate(-111,199)" x1="232" y1="511" x2="232" y2="543" />
<line fill="none" stroke="RGB(0,255,0)" stroke-width="2" x1="91" y1="805" x2="91" y2="884" />
<text fill="RGB(255,255,255)" stroke="none" stroke-width="1" x="69" y="898" font-family="黑体" font-size="12">浮断线</text>
<line fill="none" stroke="RGB(0,255,0)" stroke-width="2" transform="translate(160,153) rotate(90.00,216,511)" x1="200" y1="511" x2="232" y2="511" />
<line fill="none" stroke="RGB(0,255,0)" stroke-width="2" transform="translate(129,122) rotate(90.00,232,527)" x1="232" y1="511" x2="232" y2="543" />
<line fill="none" stroke="RGB(0,255,0)" stroke-width="2" transform="translate(232,168)" x1="200" y1="511" x2="200" y2="575" />
<line fill="none" stroke="RGB(0,255,0)" stroke-width="2" transform="translate(231,231)" x1="200" y1="511" x2="232" y2="511" />
<line fill="none" stroke="RGB(0,255,0)" stroke-width="2" transform="translate(230,198)" x1="232" y1="511" x2="232" y2="543" />
<text fill="RGB(255,255,255)" stroke="none" stroke-width="1" x="793" y="898" font-family="黑体" font-size="12">浮腰线</text>
<line fill="none" stroke="RGB(0,255,0)" stroke-width="2" x1="432" y1="804" x2="432" y2="883" />
<line fill="none" stroke="RGB(0,255,0)" stroke-width="2" x1="537" y1="680" x2="537" y2="742" />
<line fill="none" stroke="RGB(0,255,0)" stroke-width="2" x1="601" y1="709" x2="601" y2="742" />
<line fill="none" stroke="RGB(0,255,0)" stroke-width="2" transform="translate(614,168)" x1="200" y1="511" x2="200" y2="575" />
<line fill="none" stroke="RGB(0,255,0)" stroke-width="2" transform="translate(613,231)" x1="200" y1="511" x2="232" y2="511" />
<line fill="none" stroke="RGB(0,255,0)" stroke-width="2" transform="translate(612,198)" x1="232" y1="511" x2="232" y2="543" />
<line fill="none" stroke="RGB(0,255,0)" stroke-width="2" x1="814" y1="804" x2="814" y2="883" />
<text fill="RGB(255,255,255)" stroke="none" stroke-width="1" x="404" y="898" font-family="黑体" font-size="12">浮东线</text>
<line fill="none" stroke="RGB(0,255,0)" stroke-width="2" transform="translate(733,168)" x1="200" y1="511" x2="200" y2="575" />
<line fill="none" stroke="RGB(0,255,0)" stroke-width="2" transform="translate(732,231)" x1="200" y1="511" x2="232" y2="511" />
<line fill="none" stroke="RGB(0,255,0)" stroke-width="2" transform="translate(731,198)" x1="232" y1="511" x2="232" y2="543" />
<line fill="none" stroke="RGB(0,255,0)" stroke-width="2" x1="933" y1="804" x2="933" y2="883" />
<text fill="RGB(255,255,255)" stroke="none" stroke-width="1" x="902" y="898" font-family="黑体" font-size="12">浮陵中Ⅱ线</text>
<line fill="none" stroke="RGB(0,255,0)" stroke-width="2" transform="translate(859,168)" x1="200" y1="511" x2="200" y2="575" />
<line fill="none" stroke="RGB(0,255,0)" stroke-width="2" transform="translate(858,231)" x1="200" y1="511" x2="232" y2="511" />
<line fill="none" stroke="RGB(0,255,0)" stroke-width="2" transform="translate(857,198)" x1="232" y1="511" x2="232" y2="543" />
<line fill="none" stroke="RGB(0,255,0)" stroke-width="2" x1="1059" y1="804" x2="1059" y2="883" />
<text fill="RGB(255,255,255)" stroke="none" stroke-width="1" x="1035" y="898" font-family="黑体" font-size="12">备用线</text>
<line fill="none" stroke="RGB(0,255,0)" stroke-width="2" transform="translate(1216,168)" x1="200" y1="511" x2="200" y2="575" />
<line fill="none" stroke="RGB(0,255,0)" stroke-width="2" transform="translate(1215,231)" x1="200" y1="511" x2="232" y2="511" />
<line fill="none" stroke="RGB(0,255,0)" stroke-width="2" transform="translate(1214,198)" x1="232" y1="511" x2="232" y2="543" />
<line fill="none" stroke="RGB(0,255,0)" stroke-width="2" x1="1416" y1="804" x2="1416" y2="883" />
<line fill="none" stroke="RGB(0,255,0)" stroke-width="2" transform="translate(1080,168)" x1="200" y1="511" x2="200" y2="575" />
<line fill="none" stroke="RGB(0,255,0)" stroke-width="2" transform="translate(1079,231)" x1="200" y1="511" x2="232" y2="511" />
<line fill="none" stroke="RGB(0,255,0)" stroke-width="2" transform="translate(1078,198)" x1="232" y1="511" x2="232" y2="543" />
<line fill="none" stroke="RGB(0,255,0)" stroke-width="2" x1="1280" y1="804" x2="1280" y2="883" />
<text fill="RGB(255,255,255)" stroke="none" stroke-width="1" x="1253" y="898" font-family="黑体" font-size="12">浮铁南线</text>
<line fill="none" stroke="RGB(255,0,0)" stroke-width="2" x1="846" y1="344" x2="846" y2="408" />
<line fill="none" stroke="RGB(255,0,0)" stroke-width="2" x1="846" y1="344" x2="878" y2="344" />
<line fill="none" stroke="RGB(255,0,0)" stroke-width="2" x1="878" y1="344" x2="878" y2="376" />
<line fill="none" stroke="RGB(255,0,0)" stroke-width="2" x1="846" y1="176" x2="846" y2="280" />
<text fill="RGB(255,255,255)" stroke="none" stroke-width="1" x="825" y="166" font-family="黑体" font-size="12">岗浮Ⅰ线</text>
<line fill="none" stroke="RGB(255,0,0)" stroke-width="2" x1="1016" y1="345" x2="1016" y2="409" />
<line fill="none" stroke="RGB(255,0,0)" stroke-width="2" x1="1016" y1="345" x2="1048" y2="345" />
<line fill="none" stroke="RGB(255,0,0)" stroke-width="2" x1="1048" y1="345" x2="1048" y2="377" />
<line fill="none" stroke="RGB(255,0,0)" stroke-width="2" x1="1016" y1="177" x2="1016" y2="281" />
<text fill="RGB(255,255,255)" stroke="none" stroke-width="1" x="997" y="169" font-family="黑体" font-size="12">岗浮Ⅱ线</text>
<line fill="none" stroke="RGB(255,0,0)" stroke-width="2" x1="1095" y1="344" x2="1095" y2="408" />
<line fill="none" stroke="RGB(0, 0, 0)" stroke-width="2" />
<line fill="none" stroke="RGB(255,0,0)" stroke-width="2" x1="1156" y1="344" x2="1156" y2="376" />
<line fill="none" stroke="RGB(255,0,0)" stroke-width="2" x1="1193" y1="345" x2="1193" y2="409" />
<line fill="none" stroke="RGB(255,0,0)" stroke-width="2" x1="1193" y1="345" x2="1225" y2="345" />
<line fill="none" stroke="RGB(255,0,0)" stroke-width="2" x1="1225" y1="345" x2="1225" y2="377" />
<line fill="none" stroke="RGB(255,0,0)" stroke-width="2" x1="1193" y1="177" x2="1193" y2="281" />
<text fill="RGB(255,255,255)" stroke="none" stroke-width="1" x="1166" y="170" font-family="黑体" font-size="12">浮铁线</text>
<text fill="RGB(255,255,255)" stroke="none" stroke-width="1" x="10" y="270" font-family="黑体" font-size="12">220kV旁母</text>
<text fill="RGB(255,255,255)" stroke="none" stroke-width="1" x="7" y="369" font-family="黑体" font-size="12">220kV II母</text>
<text fill="RGB(255,255,255)" stroke="none" stroke-width="1" x="10" y="426" font-family="黑体" font-size="12">220kV I母</text>
<text fill="RGB(255,255,255)" stroke="none" stroke-width="1" x="10" y="672" font-family="黑体" font-size="12">110kV I母</text>
<text fill="RGB(255,255,255)" stroke="none" stroke-width="1" x="7" y="725" font-family="黑体" font-size="12">110kV II母</text>
<text fill="RGB(255,255,255)" stroke="none" stroke-width="1" x="7" y="812" font-family="黑体" font-size="12">110kV 旁母</text>
<g id="PowerTransformerClass">
<use fill="none" stroke="RGB(255,0,0)" stroke-width="2" transform="translate(263,470)" xlink:href="#TRANSTHREE_STAR_T" />
<use fill="none" stroke="RGB(255,255,0)" stroke-width="2" transform="translate(258,466)" xlink:href="#TRANSTHREE_STAR" />
<use fill="none" stroke="RGB(0,255,0)" stroke-width="2" transform="translate(261,464)" xlink:href="#TRANSTHREE_TRIAN" />
<use fill="none" stroke="RGB(255,0,0)" stroke-width="2" transform="translate(1057,468)" xlink:href="#TRANSTHREE_STAR_T" />
<use fill="none" stroke="RGB(255,255,0)" stroke-width="2" transform="translate(1052,464)" xlink:href="#TRANSTHREE_STAR" />
<use fill="none" stroke="RGB(0,255,0)" stroke-width="2" transform="translate(1055,462)" xlink:href="#TRANSTHREE_TRIAN" />
</g>
<g id="WaveRecClass">
<g>
<use fill="RGB(128, 255, 0)" stroke="RGB(0, 0, 0)" stroke-width="2" transform="translate(663,411)" xlink:href="#WAVEREC" />
<metadata>
<cge:PSR_Ref ObjectID="11#10" ObjectName="220kV1#故录ZH5" />
</metadata>
</g>
<g>
<use fill="RGB(128, 255, 0)" stroke="RGB(0, 0, 0)" stroke-width="2" transform="translate(663,435)" xlink:href="#WAVEREC" />
<metadata>
<cge:PSR_Ref ObjectID="0#9" ObjectName="220kV2#故录ZH5" />
</metadata>
</g>
<g>
<use fill="RGB(128, 255, 0)" stroke="RGB(0, 0, 0)" stroke-width="2" transform="translate(661,459)" xlink:href="#WAVEREC" />
<metadata>
<cge:PSR_Ref ObjectID="0#26" ObjectName="110kV故录ZH5" />
</metadata>
</g>
</g>
<g id="RelayClass">
<g>
<use fill="RGB(128, 255, 0)" stroke="RGB(0, 0, 0)" stroke-width="2" transform="translate(117,649)" xlink:href="#RELAY" />
<metadata>
<cge:PSR_Ref ObjectID="0#27" ObjectName="110kV母差保护RCS915GAB" />
</metadata>
</g>
<g>
<use fill="RGB(128, 255, 0)" stroke="RGB(0, 0, 0)" stroke-width="2" transform="translate(89,408)" xlink:href="#RELAY" />
<metadata>
<cge:PSR_Ref ObjectID="0#6" ObjectName="220kV第一套母差保护BP2CS" />
</metadata>
</g>
<g>
<use fill="RGB(128, 255, 0)" stroke="RGB(0, 0, 0)" stroke-width="2" transform="translate(89,436)" xlink:href="#RELAY" />
<metadata>
<cge:PSR_Ref ObjectID="0#8" ObjectName="220kV第二套母差保护RCS915GA" />
</metadata>
</g>
<g>
<use fill="RGB(128, 255, 0)" stroke="RGB(0, 0, 0)" stroke-width="2" transform="translate(849,182)" xlink:href="#RELAY" />
<metadata>
<cge:PSR_Ref ObjectID="0#5" ObjectName="220kV岗浮I线608第一套线路保护RCS931GM" />
</metadata>
</g>
<g>
<use fill="RGB(128, 255, 0)" stroke="RGB(0, 0, 0)" stroke-width="2" transform="translate(849,207)" xlink:href="#RELAY" />
<metadata>
<cge:PSR_Ref ObjectID="0#4" ObjectName="220kV岗浮I线608第二套线路保护CSC103B" />
</metadata>
</g>
<g>
<use fill="RGB(128, 255, 0)" stroke="RGB(0, 0, 0)" stroke-width="2" transform="translate(1017,183)" xlink:href="#RELAY" />
<metadata>
<cge:PSR_Ref ObjectID="0#17" ObjectName="220kV岗浮II线612第一套线路保护RCS931GM" />
</metadata>
</g>
<g>
<use fill="RGB(128, 255, 0)" stroke="RGB(0, 0, 0)" stroke-width="2" transform="translate(1017,211)" xlink:href="#RELAY" />
<metadata>
<cge:PSR_Ref ObjectID="0#18" ObjectName="220kV岗浮II线612第二套线路保护CSC103B" />
</metadata>
</g>
<g>
<use fill="RGB(128, 255, 0)" stroke="RGB(0, 0, 0)" stroke-width="2" transform="translate(1192,182)" xlink:href="#RELAY" />
<metadata>
<cge:PSR_Ref ObjectID="0#19" ObjectName="220kV浮铁线614第一套线路保护RCS931GM" />
</metadata>
</g>
<g>
<use fill="RGB(128, 255, 0)" stroke="RGB(0, 0, 0)" stroke-width="2" transform="translate(1192,208)" xlink:href="#RELAY" />
<metadata>
<cge:PSR_Ref ObjectID="0#20" ObjectName="220kV浮铁线614第二套线路保护CSC103B" />
</metadata>
</g>
<g>
<use fill="RGB(128, 255, 0)" stroke="RGB(0, 0, 0)" stroke-width="2" transform="translate(932,836)" xlink:href="#RELAY" />
<metadata>
<cge:PSR_Ref ObjectID="0#28" ObjectName="110kV浮陵中II线516线路保护RCS943TMV" />
</metadata>
</g>
<g>
<use fill="RGB(128, 255, 0)" stroke="RGB(0, 0, 0)" stroke-width="2" transform="translate(432,836)" xlink:href="#RELAY" />
<metadata>
<cge:PSR_Ref ObjectID="0#29" ObjectName="110kV浮东线508线路保护RCS941A" />
</metadata>
</g>
<g>
<use fill="RGB(128, 255, 0)" stroke="RGB(0, 0, 0)" stroke-width="2" transform="translate(91,836)" xlink:href="#RELAY" />
<metadata>
<cge:PSR_Ref ObjectID="0#30" ObjectName="110kV浮断线502线路保护RCS941A" />
</metadata>
</g>
<g>
<use fill="RGB(128, 255, 0)" stroke="RGB(0, 0, 0)" stroke-width="2" transform="translate(1281,835)" xlink:href="#RELAY" />
<metadata>
<cge:PSR_Ref ObjectID="0#35" ObjectName="110kV浮铁南线524线路保护RCS941A" />
</metadata>
</g>
<g>
<use fill="RGB(128, 255, 0)" stroke="RGB(0, 0, 0)" stroke-width="2" transform="translate(1058,836)" xlink:href="#RELAY" />
<metadata>
<cge:PSR_Ref ObjectID="0#33" ObjectName="110kV备用线518线路RCS943A" />
</metadata>
</g>
<g>
<use fill="RGB(128, 255, 0)" stroke="RGB(0, 0, 0)" stroke-width="2" transform="translate(813,836)" xlink:href="#RELAY" />
<metadata>
<cge:PSR_Ref ObjectID="0#37" ObjectName="110kV浮腰线514线路保护ISA311GA" />
</metadata>
</g>
<g>
<use fill="RGB(128, 255, 0)" stroke="RGB(0, 0, 0)" stroke-width="2" transform="translate(427,180)" xlink:href="#RELAY" />
<metadata>
<cge:PSR_Ref ObjectID="0#24" ObjectName="220kV浮德II线604第一套线路保护RCS902B" />
</metadata>
</g>
<g>
<use fill="RGB(128, 255, 0)" stroke="RGB(0, 0, 0)" stroke-width="2" transform="translate(427,208)" xlink:href="#RELAY" />
<metadata>
<cge:PSR_Ref ObjectID="0#25" ObjectName="220kV浮德II线604第二套线路保护RCS901B" />
</metadata>
</g>
<g>
<use fill="RGB(128, 255, 0)" stroke="RGB(0, 0, 0)" stroke-width="2" transform="translate(663,178)" xlink:href="#RELAY" />
<metadata>
<cge:PSR_Ref ObjectID="0#3" ObjectName="220kV浮太线606第一套线路保护PSL602U" />
</metadata>
</g>
<g>
<use fill="RGB(128, 255, 0)" stroke="RGB(0, 0, 0)" stroke-width="2" transform="translate(663,206)" xlink:href="#RELAY" />
<metadata>
<cge:PSR_Ref ObjectID="0#2" ObjectName="220kV浮太线606第二套线路保护RCS901G" />
</metadata>
</g>
<g>
<use fill="RGB(128, 255, 0)" stroke="RGB(0, 0, 0)" stroke-width="2" transform="translate(1087,307)" xlink:href="#RELAY" />
<metadata>
<cge:PSR_Ref ObjectID="0#7" ObjectName="220kV母联600断路器保护PSL633U" />
</metadata>
</g>
<g>
<use fill="RGB(128, 255, 0)" stroke="RGB(0, 0, 0)" stroke-width="2" transform="translate(1416,831)" xlink:href="#RELAY" />
<metadata>
<cge:PSR_Ref ObjectID="0#36" ObjectName="110kV浮柳线526线路保护RCS941A" />
</metadata>
</g>
<g>
<use fill="RGB(128, 255, 0)" stroke="RGB(0, 0, 0)" stroke-width="2" transform="translate(531,769)" xlink:href="#RELAY" />
<metadata>
<cge:PSR_Ref ObjectID="0#32" ObjectName="110kV母联500断路器保护PSL633U" />
</metadata>
</g>
<g>
<use fill="RGB(128, 255, 0)" stroke="RGB(0, 0, 0)" stroke-width="2" transform="translate(1185,833)" xlink:href="#RELAY" />
<metadata>
<cge:PSR_Ref ObjectID="0#34" ObjectName="110kV备用线522线路保护RCS943A" />
</metadata>
</g>
<g>
<use fill="RGB(128, 255, 0)" stroke="RGB(0, 0, 0)" stroke-width="2" transform="translate(433,521)" xlink:href="#RELAY" />
<metadata>
<cge:PSR_Ref ObjectID="0#11" ObjectName="#1主变第一套电量保护PST1200U" />
</metadata>
</g>
<g>
<use fill="RGB(128, 255, 0)" stroke="RGB(0, 0, 0)" stroke-width="2" transform="translate(433,545)" xlink:href="#RELAY" />
<metadata>
<cge:PSR_Ref ObjectID="0#12" ObjectName="#1主变第二套电量保护PST1200U" />
</metadata>
</g>
<g>
<use fill="RGB(128, 255, 0)" stroke="RGB(0, 0, 0)" stroke-width="2" transform="translate(433,569)" xlink:href="#RELAY" />
<metadata>
<cge:PSR_Ref ObjectID="0#15" ObjectName="#1主变非电量保护PST1210B1" />
</metadata>
</g>
<g>
<use fill="RGB(128, 255, 0)" stroke="RGB(0, 0, 0)" stroke-width="2" transform="translate(1233,505)" xlink:href="#RELAY" />
<metadata>
<cge:PSR_Ref ObjectID="0#14" ObjectName="#2主变第一套电量保护PST1200U" />
</metadata>
</g>
<g>
<use fill="RGB(128, 255, 0)" stroke="RGB(0, 0, 0)" stroke-width="2" transform="translate(1233,529)" xlink:href="#RELAY" />
<metadata>
<cge:PSR_Ref ObjectID="0#13" ObjectName="#2主变第二套电量保护PST1200U" />
</metadata>
</g>
<g>
<use fill="RGB(128, 255, 0)" stroke="RGB(0, 0, 0)" stroke-width="2" transform="translate(1233,553)" xlink:href="#RELAY" />
<metadata>
<cge:PSR_Ref ObjectID="0#16" ObjectName="#2主变非电量保护PST1210B1" />
</metadata>
</g>
<g>
<use fill="RGB(128, 255, 0)" stroke="RGB(0, 0, 0)" stroke-width="2" transform="translate(688,838)" xlink:href="#RELAY" />
<metadata>
<cge:PSR_Ref ObjectID="0#31" ObjectName="110kV浮凌中I线512线路保护RCS943TMV" />
</metadata>
</g>
<g>
<use fill="RGB(128, 255, 0)" stroke="RGB(0, 0, 0)" stroke-width="2" transform="translate(232,179)" xlink:href="#RELAY" />
<metadata>
<cge:PSR_Ref ObjectID="0#21" ObjectName="220kV浮同线602第一套线路保护CSC103A" />
</metadata>
</g>
<g>
<use fill="RGB(128, 255, 0)" stroke="RGB(0, 0, 0)" stroke-width="2" transform="translate(232,207)" xlink:href="#RELAY" />
<metadata>
<cge:PSR_Ref ObjectID="0#23" ObjectName="220kV浮同线602第二套线路保护PRS753A-G" />
</metadata>
</g>
</g>
<text fill="RGB(255,255,255)" stroke="none" stroke-width="1" x="397" y="546" font-family="黑体" font-size="12">#1主变</text>
<text fill="RGB(255,255,255)" stroke="none" stroke-width="1" x="464" y="541" font-family="黑体" font-size="12">#1主变第一套电量保护PST1200U</text>
<text fill="RGB(255,255,255)" stroke="none" stroke-width="1" x="465" y="566" font-family="黑体" font-size="12">#1主变第二套电量保护PST1200U</text>
<text fill="RGB(255,255,255)" stroke="none" stroke-width="1" x="145" y="669" font-family="黑体" font-size="12">110kV母差保护RCS915GA</text>
<text fill="RGB(255,255,255)" stroke="none" stroke-width="1" x="118" y="427" font-family="黑体" font-size="12">220kV第一套母差保护BP2CS</text>
<text fill="RGB(255,255,255)" stroke="none" stroke-width="1" x="118" y="455" font-family="黑体" font-size="12">220kV第二套母差保护RCS915GA</text>
<text fill="RGB(255,255,255)" stroke="none" stroke-width="1" x="877" y="201" font-family="黑体" font-size="12">第一套线路保护RCS931GM</text>
<text fill="RGB(255,255,255)" stroke="none" stroke-width="1" x="877" y="226" font-family="黑体" font-size="12">第二套线路保护CSC103B</text>
<text fill="RGB(255,255,255)" stroke="none" stroke-width="1" x="1045" y="202" font-family="黑体" font-size="12">第一套线路保护RCS931GM</text>
<text fill="RGB(255,255,255)" stroke="none" stroke-width="1" x="1045" y="231" font-family="黑体" font-size="12">第二套线路保护CSC103B</text>
<text fill="RGB(255,255,255)" stroke="none" stroke-width="1" x="960" y="856" font-family="黑体" font-size="12">RCS943TMV</text>
<text fill="RGB(255,255,255)" stroke="none" stroke-width="1" x="460" y="856" font-family="黑体" font-size="12">RCS941A</text>
<text fill="RGB(255,255,255)" stroke="none" stroke-width="1" x="119" y="855" font-family="黑体" font-size="12">RCS941A</text>
<text fill="RGB(255,255,255)" stroke="none" stroke-width="1" x="1309" y="855" font-family="黑体" font-size="12">RCS941A</text>
<text fill="RGB(255,255,255)" stroke="none" stroke-width="1" x="1086" y="856" font-family="黑体" font-size="12">RCS943A</text>
<text fill="RGB(255,255,255)" stroke="none" stroke-width="1" x="841" y="856" font-family="黑体" font-size="12">ISA311GA</text>
<text fill="RGB(255,255,255)" stroke="none" stroke-width="1" x="455" y="199" font-family="黑体" font-size="12">第一套线路保护RCS902B</text>
<text fill="RGB(255,255,255)" stroke="none" stroke-width="1" x="455" y="227" font-family="黑体" font-size="12">第二套线路保护RCS901B</text>
<image x="-4" y="-2" width="1690" height="140" xlink:href="国家电网图.jpg" />
<text fill="RGB(255,255,255)" stroke="none" stroke-width="1" x="345" y="62" font-family="宋体" font-size="48" font-weight="bold">智能型继电保护及故障信息处理系统</text>
<text fill="RGB(255,255,255)" stroke="none" stroke-width="1" x="362" y="121" font-family="宋体" font-size="24" font-style="italic" font-weight="bold">Intelligent Power Fault Analyzing  Processing System</text>
<text fill="RGB(255,255,255)" stroke="none" stroke-width="1" x="1124" y="126" font-family="宋体" font-size="36" font-weight="bold">220kV浮桥变</text>
<text fill="RGB(255,255,255)" stroke="none" stroke-width="1" x="87" y="105" font-family="宋体" font-size="24" font-weight="bold">湖南省电力公司</text>
<image x="1471" y="0" width="212" height="84" xlink:href="未标题-1.jpg" />
<text fill="RGB(255,255,255)" stroke="none" stroke-width="1" x="1364" y="126" font-family="宋体" font-size="28" font-weight="bold">国电南思</text>
<text fill="RGB(255,255,255)" stroke="none" stroke-width="1" x="1025" y="317" font-family="黑体" font-size="12">612</text>
<text fill="RGB(255,255,255)" stroke="none" stroke-width="1" x="436" y="316" font-family="黑体" font-size="12">604</text>
<text fill="RGB(255,255,255)" stroke="none" stroke-width="1" x="855" y="316" font-family="黑体" font-size="12">608</text>
<text fill="RGB(255,255,255)" stroke="none" stroke-width="1" x="1202" y="317" font-family="黑体" font-size="12">614</text>
<text fill="RGB(255,255,255)" stroke="none" stroke-width="1" x="1219" y="201" font-family="黑体" font-size="12">第一套线路保护RCS931GM</text>
<text fill="RGB(255,255,255)" stroke="none" stroke-width="1" x="1219" y="228" font-family="黑体" font-size="12">第二套线路保护CSC103B</text>
<text fill="RGB(255,255,255)" stroke="none" stroke-width="1" x="101" y="779" font-family="黑体" font-size="12">502</text>
<text fill="RGB(255,255,255)" stroke="none" stroke-width="1" x="442" y="778" font-family="黑体" font-size="12">508</text>
<text fill="RGB(255,255,255)" stroke="none" stroke-width="1" x="824" y="778" font-family="黑体" font-size="12">514</text>
<text fill="RGB(255,255,255)" stroke="none" stroke-width="1" x="943" y="778" font-family="黑体" font-size="12">516</text>
<text fill="RGB(255,255,255)" stroke="none" stroke-width="1" x="1069" y="778" font-family="黑体" font-size="12">518</text>
<text fill="RGB(255,255,255)" stroke="none" stroke-width="1" x="1290" y="778" font-family="黑体" font-size="12">524</text>
<line fill="none" stroke="RGB(255,0,0)" stroke-width="2" x1="660" y1="175" x2="660" y2="279" />
<text fill="RGB(255,255,255)" stroke="none" stroke-width="1" x="640" y="168" font-family="黑体" font-size="12">浮太线</text>
<text fill="RGB(255,255,255)" stroke="none" stroke-width="1" x="691" y="225" font-family="黑体" font-size="12">第二套线路保护RCS901G</text>
<text fill="RGB(255,255,255)" stroke="none" stroke-width="1" x="691" y="197" font-family="黑体" font-size="12">第一套线路保护PSL602U</text>
<text fill="RGB(255,255,255)" stroke="none" stroke-width="1" x="1115" y="367" font-family="黑体" font-size="12">600</text>
<text fill="RGB(255,255,255)" stroke="none" stroke-width="1" x="1116" y="327" font-family="黑体" font-size="12">PSL633U</text>
<text fill="RGB(255,255,255)" stroke="none" stroke-width="1" x="1426" y="778" font-family="黑体" font-size="12">526</text>
<text fill="RGB(255,255,255)" stroke="none" stroke-width="1" x="1397" y="898" font-family="黑体" font-size="12">浮柳线</text>
<text fill="RGB(255,255,255)" stroke="none" stroke-width="1" x="1444" y="851" font-family="黑体" font-size="12">RCS941A</text>
<text fill="RGB(255,255,255)" stroke="none" stroke-width="1" x="558" y="765" font-family="黑体" font-size="12">500</text>
<text fill="RGB(255,255,255)" stroke="none" stroke-width="1" transform="translate(-9,-156)" x="363" y="770" font-family="黑体" font-size="12">510</text>
<text fill="RGB(255,255,255)" stroke="none" stroke-width="1" x="356" y="472" font-family="黑体" font-size="12">610</text>
<line fill="none" stroke="RGB(255,0,0)" stroke-width="2" transform="translate(132,-90) rotate(90.00,232,527)" x1="232" y1="511" x2="232" y2="543" />
<line fill="none" stroke="RGB(255,0,0)" stroke-width="2" x1="379" y1="410" x2="380" y2="437" />
<line fill="none" stroke="RGB(255,0,0)" stroke-width="2" x1="348" y1="376" x2="347" y2="437" />
<line fill="none" stroke="RGB(0,255,0)" stroke-width="2" x1="344" y1="640" x2="344" y2="706" />
<line fill="none" stroke="RGB(0,255,0)" stroke-width="2" transform="translate(954,154) rotate(90.00,216,511)" x1="200" y1="511" x2="232" y2="511" />
<line fill="none" stroke="RGB(0,255,0)" stroke-width="2" transform="translate(923,121) rotate(90.00,232,527)" x1="232" y1="511" x2="232" y2="543" />
<text fill="RGB(255,255,255)" stroke="none" stroke-width="1" x="1191" y="546" font-family="黑体" font-size="12">#2主变</text>
<text fill="RGB(255,255,255)" stroke="none" stroke-width="1" transform="translate(785,-154)" x="363" y="770" font-family="黑体" font-size="12">511</text>
<text fill="RGB(255,255,255)" stroke="none" stroke-width="1" x="1150" y="472" font-family="黑体" font-size="12">611</text>
<line fill="none" stroke="RGB(255,0,0)" stroke-width="2" transform="translate(926,-90) rotate(90.00,232,527)" x1="232" y1="511" x2="232" y2="543" />
<line fill="none" stroke="RGB(255,0,0)" stroke-width="2" x1="1172" y1="410" x2="1173" y2="437" />
<line fill="none" stroke="RGB(255,0,0)" stroke-width="2" x1="1141" y1="376" x2="1140" y2="437" />
<line fill="none" stroke="RGB(0,255,0)" stroke-width="2" x1="1138" y1="641" x2="1138" y2="707" />
<text fill="RGB(255,255,255)" stroke="none" stroke-width="1" x="464" y="589" font-family="黑体" font-size="12">#1主变非电量保护PST1210B1</text>
<text fill="RGB(255,255,255)" stroke="none" stroke-width="1" x="1264" y="525" font-family="黑体" font-size="12">#2主变第一套电量保护PST1200U</text>
<text fill="RGB(255,255,255)" stroke="none" stroke-width="1" x="1264" y="549" font-family="黑体" font-size="12">#2主变第二套电量保护PST1200U</text>
<text fill="RGB(255,255,255)" stroke="none" stroke-width="1" x="1264" y="573" font-family="黑体" font-size="12">#2主变非电量保护PST1210B1</text>
<text fill="RGB(255,255,255)" stroke="none" stroke-width="1" x="555" y="790" font-family="黑体" font-size="12">PSL633U</text>
<text fill="RGB(255,255,255)" stroke="none" stroke-width="1" x="702" y="429" font-family="黑体" font-size="12">220kV1#故录ZH5</text>
<text fill="RGB(255,255,255)" stroke="none" stroke-width="1" x="705" y="453" font-family="黑体" font-size="12">220kV2#故录ZH5</text>
<text fill="RGB(255,255,255)" stroke="none" stroke-width="1" x="703" y="477" font-family="黑体" font-size="12">110kV故录ZH5</text>
<line fill="none" stroke="RGB(0,255,0)" stroke-width="2" transform="translate(982,166)" x1="200" y1="511" x2="200" y2="575" />
<line fill="none" stroke="RGB(0,255,0)" stroke-width="2" transform="translate(981,229)" x1="200" y1="511" x2="232" y2="511" />
<line fill="none" stroke="RGB(0,255,0)" stroke-width="2" transform="translate(980,196)" x1="232" y1="511" x2="232" y2="543" />
<line fill="none" stroke="RGB(0,255,0)" stroke-width="2" x1="1184" y1="800" x2="1184" y2="879" />
<text fill="RGB(255,255,255)" stroke="none" stroke-width="1" x="1166" y="893" font-family="黑体" font-size="12">备用线</text>
<text fill="RGB(255,255,255)" stroke="none" stroke-width="1" x="1209" y="854" font-family="黑体" font-size="12">RCS943A</text>
<text fill="RGB(255,255,255)" stroke="none" stroke-width="1" x="1189" y="774" font-family="黑体" font-size="12">522</text>
<text fill="RGB(255,255,255)" stroke="none" stroke-width="1" x="658" y="900" font-family="黑体" font-size="12">浮凌中Ⅰ线</text>
<line fill="none" stroke="RGB(0,255,0)" stroke-width="2" transform="translate(489,170)" x1="200" y1="511" x2="200" y2="575" />
<line fill="none" stroke="RGB(0,255,0)" stroke-width="2" transform="translate(488,233)" x1="200" y1="511" x2="232" y2="511" />
<line fill="none" stroke="RGB(0,255,0)" stroke-width="2" transform="translate(487,200)" x1="232" y1="511" x2="232" y2="543" />
<line fill="none" stroke="RGB(0,255,0)" stroke-width="2" x1="689" y1="806" x2="689" y2="885" />
<text fill="RGB(255,255,255)" stroke="none" stroke-width="1" x="716" y="858" font-family="黑体" font-size="12">RCS943TMV</text>
<text fill="RGB(255,255,255)" stroke="none" stroke-width="1" x="699" y="780" font-family="黑体" font-size="12">512</text>
<line fill="none" stroke="RGB(255,0,0)" stroke-width="2" x1="232" y1="343" x2="232" y2="407" />
<line fill="none" stroke="RGB(255,0,0)" stroke-width="2" x1="232" y1="343" x2="264" y2="343" />
<line fill="none" stroke="RGB(255,0,0)" stroke-width="2" x1="265" y1="343" x2="265" y2="375" />
<line fill="none" stroke="RGB(255,0,0)" stroke-width="2" x1="231" y1="175" x2="231" y2="279" />
<text fill="RGB(255,255,255)" stroke="none" stroke-width="1" x="210" y="167" font-family="黑体" font-size="12">浮同线</text>
<text fill="RGB(255,255,255)" stroke="none" stroke-width="1" x="262" y="198" font-family="黑体" font-size="12">第一套线路保护CSC103A</text>
<text fill="RGB(255,255,255)" stroke="none" stroke-width="1" x="261" y="226" font-family="黑体" font-size="12">第二套线路保护PRS753A-G</text>
<text fill="RGB(255,255,255)" stroke="none" stroke-width="1" x="241" y="315" font-family="黑体" font-size="12">602</text>
</svg>
